<svg version="1.1" id="Layer_1" xmlns="http://www.w3.org/2000/svg" xmlns:xlink="http://www.w3.org/1999/xlink" x="0px" y="0px"
	 width="100%" viewBox="0 0 367 367" enable-background="new 0 0 367 367" xml:space="preserve">
<path fill="#A6A788" opacity="1.000000" stroke="none" 
	d="
M368.000000,321.000000 
	C368.000000,336.658905 368.000000,352.317841 368.000000,367.982544 
	C245.734970,367.988373 123.469940,367.988373 1.102456,367.988373 
	C1.102456,245.666718 1.102456,123.333366 1.107824,1.000014 
	C35.096355,1.000000 69.079521,1.000000 103.458542,1.413585 
	C103.372108,7.943853 102.827599,14.056400 102.420532,20.178087 
	C101.584610,32.749172 100.822289,45.325150 100.016830,58.177170 
	C99.991295,58.640369 99.978615,58.825504 99.556702,59.038380 
	C89.980423,60.572540 80.847702,62.365368 71.632500,63.470284 
	C66.671608,64.065102 66.289421,66.064827 67.265556,70.345703 
	C74.055504,100.123131 80.600838,129.956253 87.287590,159.757385 
	C88.368080,164.572845 89.762016,169.317947 91.009094,174.499023 
	C91.332733,178.270905 91.658340,181.639313 91.631912,185.104218 
	C90.599098,186.946686 89.499489,188.650345 89.317841,190.446808 
	C88.817276,195.397461 88.757751,200.390808 88.421982,205.360397 
	C87.415039,220.264053 86.359558,235.164429 85.283951,250.394424 
	C85.244934,251.163300 85.244965,251.603851 85.144676,252.456924 
	C84.485283,260.257050 83.926208,267.644653 83.313492,275.365967 
	C83.251297,276.149872 83.242737,276.600006 83.136688,277.424438 
	C83.130341,280.596680 80.658607,284.614349 85.922485,285.122070 
	C93.477806,285.850861 101.069115,286.206604 108.832596,286.897034 
	C109.143097,287.191620 109.266052,287.310760 109.342651,287.807831 
	C111.306816,306.954193 113.317352,325.722656 115.351814,344.714508 
	C116.909546,344.531830 117.909981,344.557037 118.822807,344.286530 
	C141.462555,337.577942 164.072449,330.767212 186.747513,324.180756 
	C190.125275,323.199615 190.316330,321.439880 189.707199,318.653442 
	C188.004272,310.863525 186.404892,303.050934 185.210754,295.177002 
	C187.314941,295.174377 188.983124,295.147797 190.629578,295.324097 
	C210.951538,297.500153 231.270340,299.705841 251.712280,302.061157 
	C252.166260,302.444641 252.497879,302.670868 252.763474,303.310974 
	C251.717682,315.649597 251.087173,327.618164 249.598923,339.479095 
	C248.935333,344.767883 250.853165,345.717926 255.356506,345.989044 
	C276.593109,347.267761 297.828857,348.615662 319.033356,350.329010 
	C323.642548,350.701385 324.722504,349.283081 324.973419,345.072540 
	C325.595306,334.636963 326.659180,324.227722 327.836731,313.816833 
	C328.321625,313.842285 328.515228,313.858826 328.835297,313.884094 
	C328.961761,313.892822 329.163910,314.045807 329.419556,314.246094 
	C331.754974,314.709717 333.834747,314.973083 336.321960,315.198120 
	C347.152954,317.106567 357.576477,319.053284 368.000000,321.000000 
z"/>
<path fill="#DA433E" opacity="1.000000" stroke="none" 
	d="
M368.000000,320.531311 
	C357.576477,319.053284 347.152954,317.106567 335.986755,315.021545 
	C333.217377,314.604065 331.190643,314.324951 329.163910,314.045807 
	C329.163910,314.045807 328.961761,313.892822 328.659058,313.781799 
	C328.073395,313.549347 327.793884,313.557587 327.434784,313.562408 
	C327.351715,313.429352 327.123993,313.213623 327.159302,312.789734 
	C328.182220,303.931458 329.130219,295.492218 330.164337,287.063568 
	C334.692261,250.157806 341.241058,213.637375 351.618439,177.892578 
	C352.856262,173.628983 352.086853,172.294815 347.815704,171.769104 
	C332.782227,169.918747 317.780273,167.811783 302.767578,165.793274 
	C291.381378,164.262360 280.004028,162.662827 268.606384,161.223206 
	C266.152557,160.913239 263.072144,159.856232 262.758667,164.260315 
	C261.695831,179.193542 260.526733,194.119232 259.323639,209.382874 
	C259.262787,210.174530 259.276550,210.631073 259.184326,211.506821 
	C258.372711,220.210510 257.651337,228.493713 256.964417,236.779770 
	C255.164871,258.487152 253.380402,280.195770 251.589935,301.903900 
	C231.270340,299.705841 210.951538,297.500153 190.629578,295.324097 
	C188.983124,295.147797 187.314941,295.174377 184.976044,295.074158 
	C183.970596,294.935638 183.645935,294.829620 183.291992,294.316528 
	C177.474548,268.421539 171.642944,242.943390 165.919403,217.440994 
	C163.588440,207.054962 160.036530,196.679352 159.582031,186.188858 
	C158.528305,161.866409 165.481674,139.440674 179.827698,119.568718 
	C191.868042,102.890526 207.205795,89.642715 223.964584,77.954788 
	C227.033524,75.814445 228.489151,73.587036 227.475632,69.609772 
	C223.693008,54.765923 220.119476,39.867420 216.623291,24.952902 
	C215.755020,21.248861 213.825729,20.258446 210.508438,21.610672 
	C203.115143,24.624378 195.523758,27.260979 188.419159,30.854164 
	C164.549088,42.926586 147.389481,61.280571 138.192215,86.601067 
	C135.725967,93.390816 133.991135,100.446243 131.656311,108.264450 
	C130.945786,105.677101 130.351746,103.987701 130.024872,102.248100 
	C127.565247,89.157524 125.111847,76.065414 122.751434,62.956680 
	C121.232506,54.521141 121.105278,54.400131 112.857491,55.875816 
	C108.597267,56.638058 104.306595,57.230145 100.029678,57.899109 
	C100.822289,45.325150 101.584610,32.749172 102.420532,20.178087 
	C102.827599,14.056400 103.372108,7.943853 103.927200,1.413585 
	C160.687561,1.000000 217.375122,1.000000 274.575012,1.345636 
	C275.744293,3.155863 276.401215,4.620456 276.848511,6.273785 
	C276.140350,6.719820 275.641754,6.977118 275.038422,7.055578 
	C274.640869,7.938507 274.348053,9.000275 274.149658,10.386618 
	C274.321655,10.922785 274.399200,11.134376 274.407196,11.369064 
	C274.337677,11.392164 274.457092,11.307339 274.182678,11.421885 
	C273.599670,12.019747 273.291046,12.503063 272.991211,12.992765 
	C273.000000,12.999151 272.985596,12.981973 272.607117,12.990624 
	C268.350311,13.331870 268.036255,16.093861 268.057678,19.065285 
	C268.041870,19.035250 268.109497,19.041380 267.837860,19.192375 
	C267.171448,20.040123 266.776703,20.736877 266.379089,21.391842 
	C266.376221,21.350054 266.450928,21.387903 266.183838,21.435448 
	C265.597900,21.651237 265.279053,21.819483 264.650391,21.910313 
	C263.175629,21.456253 262.010651,21.079607 260.845703,20.702963 
	C260.612640,21.047306 260.379578,21.391647 260.146515,21.735989 
	C261.108765,22.494926 262.070984,23.253864 262.962341,24.290207 
	C262.623077,25.068180 262.354706,25.568747 261.795502,26.017229 
	C260.585480,26.301376 259.666290,26.637609 258.747131,26.973839 
	C259.183319,27.654264 259.619476,28.334694 260.014587,29.384680 
	C257.914612,37.526806 255.855728,45.299374 253.655548,53.224365 
	C253.332886,53.590122 253.174026,53.819088 253.044922,54.517063 
	C253.061371,58.302784 253.070557,61.635113 252.990265,65.141006 
	C253.188080,65.822220 253.475388,66.329872 253.911835,66.892838 
	C254.060989,66.948151 254.377899,66.976631 254.500549,67.297195 
	C254.655106,68.071983 254.687027,68.526199 254.576218,69.266022 
	C254.983612,70.686546 255.533722,71.821457 256.054474,72.970932 
	C256.025116,72.985481 256.041138,72.921921 256.113647,73.257996 
	C257.235229,74.281395 258.284271,74.968719 259.226044,75.825394 
	C259.118744,75.994736 259.348145,75.663307 259.283142,76.029411 
	C259.166504,76.888519 259.114838,77.381516 259.157471,77.972260 
	C259.251709,78.069992 259.632172,78.152016 259.632172,78.152016 
	C259.632172,78.152016 259.996765,77.993713 260.013916,77.691422 
	C260.038422,76.986053 260.045715,76.582985 260.256866,76.250450 
	C260.701904,76.495407 260.872345,76.722847 261.053131,77.339188 
	C262.517731,78.693939 263.901215,79.712814 265.244263,80.740601 
	C265.203796,80.749504 265.190308,80.667786 265.340912,80.891655 
	C265.801117,81.289703 266.110718,81.463882 266.437012,81.665100 
	C266.453674,81.692154 266.447174,81.623688 266.370056,82.003235 
	C266.235229,82.895950 266.177521,83.409126 265.929138,84.191193 
	C264.686218,88.260773 266.692505,87.855698 269.507751,86.891449 
	C270.731995,86.779312 271.545746,86.678413 272.227997,86.786835 
	C272.096497,86.996155 272.346252,86.571701 272.384033,86.882256 
	C272.622559,87.781853 272.823273,88.370903 273.024506,89.349625 
	C272.903381,93.658012 274.721893,94.518646 278.305542,92.991501 
	C278.528320,93.034897 278.968933,93.151382 278.916290,93.360596 
	C279.273071,94.027428 279.682465,94.485046 280.321594,95.105438 
	C281.040619,95.830536 281.529907,96.392876 282.168518,97.146538 
	C282.531219,97.582390 282.764343,97.806381 283.154663,98.244431 
	C283.540985,98.962280 283.789856,99.445549 284.183044,100.125801 
	C284.536652,100.573524 284.767395,100.802643 285.072144,101.217812 
	C285.124695,101.425476 285.194763,101.848137 285.073639,102.109825 
	C286.344849,102.877785 287.737183,103.384064 289.439178,103.889450 
	C290.161407,103.903976 290.573944,103.919380 291.204712,104.123840 
	C291.945679,104.542549 292.468414,104.772217 293.274597,104.990067 
	C293.745087,104.949921 293.932098,104.921600 294.084656,104.895271 
	C294.050232,104.897263 294.059448,104.828918 294.221344,105.047501 
	C294.685333,105.459694 294.987427,105.653313 295.488678,105.949463 
	C295.687836,106.052002 295.960266,106.407700 296.066772,106.638641 
	C296.601166,107.118858 297.029083,107.368134 297.473938,107.704514 
	C297.490906,107.791618 297.484711,107.611259 297.376465,107.926468 
	C297.211304,108.456337 297.154419,108.670998 296.872833,109.080582 
	C296.076172,109.794502 295.504181,110.313507 295.389618,110.417473 
	C299.431488,113.163078 303.258881,115.911659 307.246521,118.403809 
	C309.019287,119.511742 311.115356,120.102425 313.037231,120.963577 
	C313.009766,120.999275 313.072693,120.931793 313.087891,121.298004 
	C315.717102,128.190277 321.810059,130.025650 328.790741,126.236847 
	C328.526215,124.537666 328.250854,122.768784 327.977814,120.989716 
	C327.980164,120.979538 328.000580,120.975060 328.184662,120.836624 
	C328.602661,120.496201 328.805969,120.267067 328.978424,119.994904 
	C328.978180,119.979012 329.009705,119.982925 329.408203,119.978409 
	C336.832184,118.915756 336.832184,118.915756 335.974030,112.993454 
	C335.971161,112.961777 336.034698,112.964752 336.211517,112.833069 
	C336.612488,112.508163 336.805481,112.287674 336.966675,112.007416 
	C336.966034,111.974899 337.030762,111.981232 337.428223,111.977356 
	C344.963623,110.922264 345.244446,110.594780 343.348755,105.466080 
	C343.350708,105.397697 343.487274,105.389557 343.867249,105.444077 
	C347.901611,103.655983 354.228546,104.251915 351.976959,96.996902 
	C351.973694,96.970329 352.026581,96.978683 352.422089,96.983322 
	C359.977570,95.903404 361.181335,94.531830 359.348846,89.482788 
	C359.351288,89.416542 359.483673,89.409599 359.814514,89.412544 
	C360.565857,88.767937 360.986359,88.120384 361.408447,87.435349 
	C361.410065,87.397858 361.484680,87.389694 361.859924,87.458145 
	C364.156769,87.684402 366.078400,87.842201 368.000000,88.000000 
	C368.000000,165.354233 368.000000,242.708450 368.000000,320.531311 
M247.593124,43.095837 
	C248.189362,44.435822 248.785614,45.775806 249.381866,47.115788 
	C249.837997,47.000404 250.294128,46.885021 250.750259,46.769638 
	C250.663254,45.128983 251.040176,43.263062 250.378952,41.901203 
	C249.420609,39.927406 247.962982,39.611610 247.593124,43.095837 
M254.532776,35.665680 
	C254.374390,35.144650 254.216003,34.623619 254.057617,34.102589 
	C253.825256,34.274479 253.371201,34.551666 253.395050,34.601868 
	C253.617111,35.069405 253.921310,35.497929 254.532776,35.665680 
M250.444275,69.157784 
	C250.120209,69.254143 249.794220,69.345367 249.478668,69.464333 
	C249.465088,69.469460 249.547852,69.730141 249.585724,69.871773 
	C249.902084,69.749016 250.218445,69.626251 250.444275,69.157784 
M262.327179,85.375679 
	C262.506256,85.152702 262.685333,84.929718 262.864410,84.706741 
	C262.589935,84.634781 262.315491,84.562820 262.040985,84.490860 
	C262.030945,84.762283 262.020874,85.033699 262.327179,85.375679 
M268.238831,96.141594 
	C268.094360,96.036659 267.949921,95.931732 267.805450,95.826797 
	C267.896301,95.979874 267.987183,96.132950 268.238831,96.141594 
M273.448547,2.967256 
	C273.448547,2.967256 273.520081,2.940997 273.448547,2.967256 
z"/>
<path fill="#F6EBDC" opacity="1.000000" stroke="none" 
	d="
M254.718948,68.980415 
	C254.687027,68.526199 254.655106,68.071983 254.612930,66.846893 
	C253.418243,50.930843 257.100372,36.963829 264.868225,23.929718 
	C264.939911,23.890875 264.895233,23.734041 265.123291,23.558474 
	C265.717865,22.717903 266.084381,22.052900 266.450928,21.387901 
	C266.450928,21.387903 266.376221,21.350054 266.638580,21.231207 
	C267.303772,20.422031 267.706635,19.731705 268.109497,19.041378 
	C268.109497,19.041380 268.041870,19.035250 268.340820,18.897678 
	C270.088348,16.834063 271.536987,14.908016 272.985596,12.981972 
	C272.985596,12.981973 273.000000,12.999151 273.254272,12.871208 
	C273.824738,12.264624 274.140930,11.785981 274.457092,11.307339 
	C274.457092,11.307339 274.337677,11.392164 274.613159,11.277111 
	C275.139496,10.962832 275.278656,10.703615 275.332794,10.381418 
	C275.359497,10.378432 275.353058,10.324919 275.650909,10.177483 
	C278.291870,8.288636 280.635010,6.547227 283.328949,4.810183 
	C284.115936,4.657844 284.552124,4.501141 285.354218,4.369490 
	C287.679199,3.991671 289.638245,3.588799 291.828552,3.262264 
	C292.394836,3.355516 292.706421,3.278117 293.314575,3.184981 
	C295.750183,3.114039 297.865753,2.964520 300.397400,2.871182 
	C302.210388,2.886996 303.607269,2.846629 305.417145,2.896947 
	C313.561554,4.644114 321.292999,6.300595 329.225586,8.157497 
	C329.955872,8.539263 330.484955,8.720605 331.268250,9.126712 
	C332.950867,10.045579 334.379303,10.739681 335.792236,11.376072 
	C335.776764,11.318362 335.662811,11.354349 335.853851,11.614773 
	C337.689667,12.930913 339.334473,13.986629 340.987823,15.019032 
	C340.996399,14.995719 340.955750,15.024443 341.098419,15.286527 
	C341.741241,15.857705 342.241394,16.166800 342.728668,16.430092 
	C342.715790,16.384287 342.626099,16.416187 342.804443,16.689962 
	C345.551727,19.450911 348.120728,21.938084 350.696747,24.375668 
	C350.703796,24.326080 350.626373,24.389639 350.720062,24.689892 
	C351.730591,26.120682 352.647430,27.251219 353.669617,28.280117 
	C353.774933,28.178480 353.537384,28.349514 353.656738,28.682026 
	C360.551666,39.412796 364.565063,50.818184 366.332245,63.073475 
	C366.669739,65.413818 367.433136,67.692734 368.000000,70.000000 
	C368.000000,73.692909 368.000000,77.385818 367.652740,81.527191 
	C365.365204,83.780327 363.424957,85.585014 361.484680,87.389694 
	C361.484680,87.389694 361.410065,87.397858 361.163666,87.568497 
	C360.439423,88.295967 359.961548,88.852791 359.483673,89.409607 
	C359.483673,89.409599 359.351288,89.416542 359.076141,89.637482 
	C356.542847,92.231842 354.284729,94.605263 352.026581,96.978683 
	C352.026581,96.978683 351.973694,96.970329 351.669861,97.121231 
	C348.739777,99.977951 346.113525,102.683762 343.487274,105.389557 
	C343.487274,105.389557 343.350708,105.397697 343.078186,105.623520 
	C340.880707,107.893311 338.955750,109.937271 337.030762,111.981232 
	C337.030762,111.981232 336.966034,111.974899 336.740936,112.077400 
	C336.228424,112.363625 336.068054,112.625244 336.034698,112.964752 
	C336.034698,112.964752 335.971161,112.961777 335.668243,113.114700 
	C333.246796,115.506058 331.128265,117.744499 329.009705,119.982933 
	C329.009705,119.982925 328.978180,119.979012 328.741547,120.066818 
	C328.203674,120.346245 328.035553,120.619720 328.000580,120.975060 
	C328.000580,120.975060 327.980164,120.979538 327.667908,121.112244 
	C325.515503,123.278419 323.675354,125.311890 321.783630,127.402382 
	C318.529297,124.985039 315.800995,122.958420 313.072693,120.931793 
	C313.072693,120.931793 313.009766,120.999275 312.898254,120.659355 
	C308.203705,116.532768 303.620667,112.746101 298.926849,108.714691 
	C298.372314,108.183723 297.928497,107.897491 297.484711,107.611252 
	C297.484711,107.611259 297.490906,107.791618 297.358154,107.476181 
	C296.803711,106.909729 296.381989,106.658714 295.960266,106.407700 
	C295.960266,106.407700 295.687836,106.052002 295.369141,105.694122 
	C294.720123,105.167137 294.389801,104.998024 294.059448,104.828918 
	C294.059448,104.828918 294.050232,104.897263 293.990417,104.653954 
	C293.630676,104.251038 293.330750,104.091423 292.915283,103.721550 
	C292.595459,103.244576 292.328552,103.078568 291.819580,102.732239 
	C287.759216,99.298927 283.878296,96.146622 279.998291,92.998077 
	C279.999237,93.001839 280.006927,93.001770 279.904846,92.748520 
	C279.351166,92.204277 278.899536,91.913284 278.406128,91.628937 
	C278.364319,91.635582 278.428040,91.691330 278.292847,91.437103 
	C277.822021,91.009293 277.486420,90.835701 277.165344,90.714928 
	C277.179932,90.767738 277.284454,90.734818 277.126648,90.449738 
	C275.427948,88.967010 273.887115,87.769356 272.346252,86.571701 
	C272.346252,86.571701 272.096497,86.996155 272.062561,86.511871 
	C270.168182,84.559616 268.307678,83.091652 266.447174,81.623688 
	C266.447174,81.623688 266.453674,81.692154 266.311218,81.418671 
	C265.842621,80.986053 265.516449,80.826920 265.190308,80.667786 
	C265.190308,80.667786 265.203796,80.749504 265.105774,80.452286 
	C263.662506,79.104477 262.317261,78.053894 260.972015,77.003311 
	C260.872345,76.722847 260.701904,76.495407 260.120850,76.066025 
	C259.780945,75.811058 259.348145,75.663307 259.348145,75.663307 
	C259.348145,75.663307 259.118744,75.994736 259.073975,75.552986 
	C258.033142,74.381470 257.037140,73.651695 256.041138,72.921921 
	C256.041138,72.921921 256.025116,72.985481 255.923294,72.643448 
	C255.453964,71.194412 255.086456,70.087418 254.718948,68.980415 
z"/>
<path fill="#D64742" opacity="1.000000" stroke="none" 
	d="
M305.004181,2.806262 
	C303.607269,2.846629 302.210388,2.886996 300.101898,2.711832 
	C297.926880,1.997532 296.463440,1.498763 295.000000,0.999997 
	C319.253021,1.000000 343.506042,1.000000 368.000000,1.000000 
	C368.000000,20.686907 368.000000,40.374794 367.794922,60.216423 
	C365.338348,53.286510 363.477631,46.043823 360.684418,39.180653 
	C359.085297,35.251511 355.970032,31.939417 353.537384,28.349518 
	C353.537384,28.349514 353.774933,28.178480 353.688141,27.915245 
	C352.609680,26.564552 351.618042,25.477097 350.626373,24.389639 
	C350.626373,24.389639 350.703796,24.326080 350.605957,24.034142 
	C347.880768,21.300196 345.253418,18.858189 342.626099,16.416183 
	C342.626099,16.416187 342.715790,16.384287 342.589294,16.159779 
	C341.960449,15.631661 341.458099,15.328053 340.955750,15.024445 
	C340.955750,15.024443 340.996399,14.995719 340.906036,14.680340 
	C339.098053,13.361425 337.380432,12.357889 335.662811,11.354351 
	C335.662811,11.354349 335.776764,11.318362 335.640747,11.101927 
	C334.007874,10.224308 332.510956,9.563125 331.014069,8.901944 
	C330.484955,8.720605 329.955872,8.539263 329.248901,7.890100 
	C321.527740,3.386181 313.660217,1.040591 305.004181,2.806262 
z"/>
<path fill="#CC5A56" opacity="1.000000" stroke="none" 
	d="
M353.656738,28.682030 
	C355.970032,31.939417 359.085297,35.251511 360.684418,39.180653 
	C363.477631,46.043823 365.338348,53.286510 367.794922,60.685081 
	C368.000000,63.700016 368.000000,66.400032 368.000000,69.550018 
	C367.433136,67.692734 366.669739,65.413818 366.332245,63.073475 
	C364.565063,50.818184 360.551666,39.412796 353.656738,28.682030 
z"/>
<path fill="#D64742" opacity="1.000000" stroke="none" 
	d="
M292.994568,3.106404 
	C292.706421,3.278117 292.394836,3.355516 291.406128,3.207700 
	C288.831024,3.499344 286.909637,3.921888 284.988281,4.344435 
	C284.552124,4.501141 284.115936,4.657844 283.042603,4.662176 
	C280.623016,5.034884 278.840576,5.559964 277.058136,6.085046 
	C276.401215,4.620456 275.744293,3.155863 275.043701,1.345636 
	C280.688049,1.000000 286.376068,1.000000 292.535553,1.351081 
	C293.002838,2.170242 292.998688,2.638323 292.994568,3.106404 
z"/>
<path fill="#D64742" opacity="1.000000" stroke="none" 
	d="
M361.859924,87.458153 
	C363.424957,85.585014 365.365204,83.780327 367.652740,81.987823 
	C368.000000,83.714355 368.000000,85.428719 368.000000,87.571533 
	C366.078400,87.842201 364.156769,87.684402 361.859924,87.458153 
z"/>
<path fill="#CC5A56" opacity="1.000000" stroke="none" 
	d="
M293.314575,3.184981 
	C292.998688,2.638323 293.002838,2.170242 293.003479,1.351081 
	C293.444458,1.000000 293.888885,1.000000 294.666687,0.999997 
	C296.463440,1.498763 297.926880,1.997532 299.685822,2.655651 
	C297.865753,2.964520 295.750183,3.114039 293.314575,3.184981 
z"/>
<path fill="#9C9C9B" opacity="1.000000" stroke="none" 
	d="
M100.016830,58.177170 
	C104.306595,57.230145 108.597267,56.638058 112.857491,55.875816 
	C121.105278,54.400131 121.232506,54.521141 122.751434,62.956680 
	C125.111847,76.065414 127.565247,89.157524 130.024872,102.248100 
	C130.351746,103.987701 130.945786,105.677101 131.656311,108.264450 
	C133.991135,100.446243 135.725967,93.390816 138.192215,86.601067 
	C147.389481,61.280571 164.549088,42.926586 188.419159,30.854164 
	C195.523758,27.260979 203.115143,24.624378 210.508438,21.610672 
	C213.825729,20.258446 215.755020,21.248861 216.623291,24.952902 
	C220.119476,39.867420 223.693008,54.765923 227.475632,69.609772 
	C228.489151,73.587036 227.033524,75.814445 223.964584,77.954788 
	C207.205795,89.642715 191.868042,102.890526 179.827698,119.568718 
	C165.481674,139.440674 158.528305,161.866409 159.582031,186.188858 
	C160.036530,196.679352 163.588440,207.054962 165.919403,217.440994 
	C171.642944,242.943390 177.474548,268.421539 182.833618,294.377502 
	C181.074738,294.810669 179.735306,294.866821 178.416565,294.727295 
	C156.576523,292.417145 134.739059,290.082367 112.688660,287.610596 
	C112.159012,287.331757 111.841721,287.195435 111.267906,287.156799 
	C110.470589,287.312927 109.929802,287.371399 109.389015,287.429901 
	C109.266052,287.310760 109.143097,287.191620 108.828247,286.517822 
	C108.069908,282.981689 107.503471,280.000275 106.949875,276.614014 
	C106.841927,275.140076 106.721138,274.070953 106.666496,272.578156 
	C106.073128,268.128967 105.413612,264.103455 104.754684,259.726776 
	C104.680145,258.914368 104.605011,258.453156 104.548126,257.598785 
	C102.669205,244.695068 100.978661,232.148590 98.814598,219.684341 
	C96.799828,208.079971 94.280922,196.563110 91.983948,185.007736 
	C91.658340,181.639313 91.332733,178.270905 91.264381,174.175629 
	C91.696053,172.302750 91.945053,171.162460 92.033791,170.009857 
	C93.642830,149.110199 95.300812,128.213974 96.804375,107.306641 
	C97.961586,91.215408 98.919426,75.109833 99.965927,59.010639 
	C99.978615,58.825504 99.991295,58.640369 100.016830,58.177170 
z"/>
<path fill="#ECDCBE" opacity="1.000000" stroke="none" 
	d="
M112.901024,287.753143 
	C134.739059,290.082367 156.576523,292.417145 178.416565,294.727295 
	C179.735306,294.866821 181.074738,294.810669 182.862915,294.784576 
	C183.645935,294.829620 183.970596,294.935638 184.529953,295.144470 
	C186.404892,303.050934 188.004272,310.863525 189.707199,318.653442 
	C190.316330,321.439880 190.125275,323.199615 186.747513,324.180756 
	C164.072449,330.767212 141.462555,337.577942 118.822807,344.286530 
	C117.909981,344.557037 116.909546,344.531830 115.351814,344.714508 
	C113.317352,325.722656 111.306816,306.954193 109.342651,287.807831 
	C109.929802,287.371399 110.470589,287.312927 111.470886,287.328491 
	C112.253937,287.519440 112.577477,287.636292 112.901024,287.753143 
z"/>
<path fill="#ECDCBE" opacity="1.000000" stroke="none" 
	d="
M327.123993,313.213623 
	C327.123993,313.213623 327.351715,313.429352 327.441742,313.590698 
	C327.531769,313.752045 327.545441,313.807892 327.545441,313.807892 
	C326.659180,324.227722 325.595306,334.636963 324.973419,345.072540 
	C324.722504,349.283081 323.642548,350.701385 319.033356,350.329010 
	C297.828857,348.615662 276.593109,347.267761 255.356506,345.989044 
	C250.853165,345.717926 248.935333,344.767883 249.598923,339.479095 
	C251.087173,327.618164 251.717682,315.649597 253.197128,303.362854 
	C257.446655,303.357208 261.196472,303.713531 265.301147,304.254852 
	C273.377258,305.325867 281.098511,306.211884 288.963776,307.252014 
	C289.318634,307.595398 289.558990,307.733154 290.243835,307.862396 
	C291.769226,307.971313 292.879639,308.037231 294.333374,308.275238 
	C303.419983,309.892059 312.163269,311.336853 321.295380,312.839935 
	C322.469177,312.931427 323.254181,312.964600 324.289001,313.109070 
	C325.400574,313.218140 326.262268,313.215881 327.123993,313.213623 
z"/>
<path fill="#EBDBBE" opacity="1.000000" stroke="none" 
	d="
M99.556702,59.038380 
	C98.919426,75.109833 97.961586,91.215408 96.804375,107.306641 
	C95.300812,128.213974 93.642830,149.110199 92.033791,170.009857 
	C91.945053,171.162460 91.696053,172.302750 91.266357,173.772171 
	C89.762016,169.317947 88.368080,164.572845 87.287590,159.757385 
	C80.600838,129.956253 74.055504,100.123131 67.265556,70.345703 
	C66.289421,66.064827 66.671608,64.065102 71.632500,63.470284 
	C80.847702,62.365368 89.980423,60.572540 99.556702,59.038380 
z"/>
<path fill="#DA423D" opacity="1.000000" stroke="none" 
	d="
M106.600349,273.001831 
	C106.721138,274.070953 106.841927,275.140076 106.763031,276.954742 
	C105.308083,284.676483 105.308723,284.668549 98.152405,284.093842 
	C96.996254,284.001038 95.667618,284.367188 94.699394,283.917206 
	C90.648994,282.034851 83.623772,285.009277 83.234184,277.050171 
	C83.242737,276.600006 83.251297,276.149872 83.632484,275.217712 
	C84.607330,273.792480 85.732185,272.846802 85.727821,271.906433 
	C85.697067,265.285156 85.433914,258.664948 85.244995,252.044388 
	C85.244965,251.603851 85.244934,251.163300 85.571915,250.200104 
	C86.578979,247.180038 87.705856,244.710724 87.864815,242.180588 
	C88.738869,228.267715 89.338264,214.337799 90.133354,200.419525 
	C90.260475,198.194229 90.900307,195.998215 91.303116,193.788651 
	C92.352913,195.152847 92.822853,196.523590 93.061417,197.933487 
	C94.191780,204.613770 95.238655,211.308105 96.353233,217.991104 
	C98.257553,229.409424 100.123016,240.835098 102.174316,252.227173 
	C102.534111,254.225357 103.723579,256.074127 104.529877,257.991913 
	C104.605011,258.453156 104.680145,258.914368 104.595367,260.076263 
	C105.157089,264.851898 105.878716,268.926849 106.600349,273.001831 
z"/>
<path fill="#C15750" opacity="1.000000" stroke="none" 
	d="
M104.548126,257.598785 
	C103.723579,256.074127 102.534111,254.225357 102.174316,252.227173 
	C100.123016,240.835098 98.257553,229.409424 96.353233,217.991104 
	C95.238655,211.308105 94.191780,204.613770 93.061417,197.933487 
	C92.822853,196.523590 92.352913,195.152847 91.303116,193.788651 
	C90.900307,195.998215 90.260475,198.194229 90.133354,200.419525 
	C89.338264,214.337799 88.738869,228.267715 87.864815,242.180588 
	C87.705856,244.710724 86.578979,247.180038 85.610977,249.871765 
	C86.359558,235.164429 87.415039,220.264053 88.421982,205.360397 
	C88.757751,200.390808 88.817276,195.397461 89.317841,190.446808 
	C89.499489,188.650345 90.599098,186.946686 91.631912,185.104218 
	C94.280922,196.563110 96.799828,208.079971 98.814598,219.684341 
	C100.978661,232.148590 102.669205,244.695068 104.548126,257.598785 
z"/>
<path fill="#C5A49F" opacity="1.000000" stroke="none" 
	d="
M264.946289,304.069885 
	C261.196472,303.713531 257.446655,303.357208 253.263168,302.949005 
	C252.497879,302.670868 252.166260,302.444641 251.712280,302.061157 
	C253.380402,280.195770 255.164871,258.487152 256.964417,236.779770 
	C257.651337,228.493713 258.372711,220.210510 259.344910,211.874298 
	C258.905426,226.524185 258.199707,241.225830 257.490051,255.927261 
	C257.482147,256.091309 257.405151,256.251404 257.391449,256.415924 
	C256.263275,269.975494 255.138016,283.535278 254.013077,297.095123 
	C253.743561,300.343872 254.944901,301.968872 258.495209,302.122345 
	C260.669556,302.216278 262.797516,303.384247 264.946289,304.069885 
z"/>
<path fill="#C15750" opacity="1.000000" stroke="none" 
	d="
M83.136688,277.424438 
	C83.623772,285.009277 90.648994,282.034851 94.699394,283.917206 
	C95.667618,284.367188 96.996254,284.001038 98.152405,284.093842 
	C105.308723,284.668549 105.308083,284.676483 106.750183,277.359558 
	C107.503471,280.000275 108.069908,282.981689 108.640701,286.342377 
	C101.069115,286.206604 93.477806,285.850861 85.922485,285.122070 
	C80.658607,284.614349 83.130341,280.596680 83.136688,277.424438 
z"/>
<path fill="#C15750" opacity="1.000000" stroke="none" 
	d="
M85.144669,252.456924 
	C85.433914,258.664948 85.697067,265.285156 85.727821,271.906433 
	C85.732185,272.846802 84.607330,273.792480 83.686127,274.883972 
	C83.926208,267.644653 84.485283,260.257050 85.144669,252.456924 
z"/>
<path fill="#C5A49F" opacity="1.000000" stroke="none" 
	d="
M329.419556,314.246094 
	C331.190643,314.324951 333.217377,314.604065 335.579315,315.059814 
	C333.834747,314.973083 331.754974,314.709717 329.419556,314.246094 
z"/>
<path fill="#C5A49F" opacity="1.000000" stroke="none" 
	d="
M327.836731,313.816833 
	C327.545441,313.807892 327.531769,313.752045 327.524811,313.723755 
	C327.793884,313.557587 328.073395,313.549347 328.532593,313.773071 
	C328.515228,313.858826 328.321625,313.842285 327.836731,313.816833 
z"/>
<path fill="#B2B2B2" opacity="1.000000" stroke="none" 
	d="
M265.301147,304.254852 
	C262.797516,303.384247 260.669556,302.216278 258.495209,302.122345 
	C254.944901,301.968872 253.743561,300.343872 254.013077,297.095123 
	C255.138016,283.535278 256.263275,269.975494 257.391449,256.415924 
	C257.405151,256.251404 257.482147,256.091309 257.490051,255.927261 
	C258.199707,241.225830 258.905426,226.524185 259.450867,211.455109 
	C259.276550,210.631073 259.262787,210.174530 259.648315,209.235565 
	C260.686890,206.975143 261.775208,205.226456 261.893646,203.414383 
	C262.737366,190.504745 263.377472,177.581833 264.117584,164.665176 
	C264.141022,164.255966 264.544983,163.868561 264.500549,163.946548 
	C269.466980,164.178802 274.073669,164.135040 278.613617,164.664001 
	C286.504089,165.583344 294.349579,166.883926 302.220764,167.975250 
	C316.646698,169.975388 331.072693,171.976852 345.510315,173.889694 
	C348.685516,174.310364 349.382904,176.300369 348.848846,178.844620 
	C348.170654,182.075516 346.883820,185.179214 346.214600,188.411316 
	C342.655548,205.600510 338.857422,222.751144 335.819733,240.034241 
	C332.779816,257.329926 330.610931,274.777222 327.911316,292.134918 
	C326.824768,299.120972 325.341766,306.045319 324.039185,312.997772 
	C323.254181,312.964600 322.469177,312.931427 321.244019,312.512695 
	C319.186676,311.268036 317.648834,309.927155 315.936615,309.645172 
	C311.730927,308.952515 307.450287,308.670624 303.189423,308.372253 
	C300.131683,308.158173 297.057098,308.184235 293.990051,308.103180 
	C292.879639,308.037231 291.769226,307.971313 290.094147,307.721619 
	C289.311340,307.361481 289.074768,307.214844 288.819763,307.097931 
	C281.098511,306.211884 273.377258,305.325867 265.301147,304.254852 
z"/>
<path fill="#C5A49F" opacity="1.000000" stroke="none" 
	d="
M324.289032,313.109070 
	C325.341766,306.045319 326.824768,299.120972 327.911316,292.134918 
	C330.610931,274.777222 332.779816,257.329926 335.819733,240.034241 
	C338.857422,222.751144 342.655548,205.600510 346.214600,188.411316 
	C346.883820,185.179214 348.170654,182.075516 348.848846,178.844620 
	C349.382904,176.300369 348.685516,174.310364 345.510315,173.889694 
	C331.072693,171.976852 316.646698,169.975388 302.220764,167.975250 
	C294.349579,166.883926 286.504089,165.583344 278.613617,164.664001 
	C274.073669,164.135040 269.466980,164.178802 264.500549,163.946548 
	C264.544983,163.868561 264.141022,164.255966 264.117584,164.665176 
	C263.377472,177.581833 262.737366,190.504745 261.893646,203.414383 
	C261.775208,205.226456 260.686890,206.975143 259.722900,208.900482 
	C260.526733,194.119232 261.695831,179.193542 262.758667,164.260315 
	C263.072144,159.856232 266.152557,160.913239 268.606384,161.223206 
	C280.004028,162.662827 291.381378,164.262360 302.767578,165.793274 
	C317.780273,167.811783 332.782227,169.918747 347.815704,171.769104 
	C352.086853,172.294815 352.856262,173.628983 351.618439,177.892578 
	C341.241058,213.637375 334.692261,250.157806 330.164337,287.063568 
	C329.130219,295.492218 328.182220,303.931458 327.159302,312.789734 
	C326.262268,313.215881 325.400574,313.218140 324.289032,313.109070 
z"/>
<path fill="#CC5A56" opacity="1.000000" stroke="none" 
	d="
M264.796509,23.968563 
	C257.100372,36.963829 253.418243,50.930843 254.490295,66.526321 
	C254.377899,66.976631 254.060989,66.948151 253.890747,66.642502 
	C253.506912,65.880379 253.293320,65.423912 253.079727,64.967445 
	C253.070557,61.635113 253.061371,58.302784 253.191574,54.366215 
	C253.514069,53.550751 253.669357,53.320740 253.796844,53.071945 
	C255.855728,45.299374 257.914612,37.526806 260.260071,29.201420 
	C261.059875,27.788839 261.573120,26.929079 262.086365,26.069317 
	C262.354706,25.568747 262.623077,25.068180 263.255737,24.276817 
	C264.012207,23.980202 264.404358,23.974382 264.796509,23.968563 
z"/>
<path fill="#D64742" opacity="1.000000" stroke="none" 
	d="
M313.087891,121.298012 
	C315.800995,122.958420 318.529297,124.985039 321.783630,127.402382 
	C323.675354,125.311890 325.515503,123.278419 327.665558,121.122429 
	C328.250854,122.768784 328.526215,124.537666 328.790741,126.236847 
	C321.810059,130.025650 315.717102,128.190277 313.087891,121.298012 
z"/>
<path fill="#D64742" opacity="1.000000" stroke="none" 
	d="
M299.037598,108.959427 
	C303.620667,112.746101 308.203705,116.532768 312.925720,120.623657 
	C311.115356,120.102425 309.019287,119.511742 307.246521,118.403809 
	C303.258881,115.911659 299.431488,113.163078 295.389618,110.417473 
	C295.504181,110.313507 296.076172,109.794502 297.194519,109.107330 
	C298.173096,108.945908 298.605347,108.952667 299.037598,108.959427 
z"/>
<path fill="#CC5A56" opacity="1.000000" stroke="none" 
	d="
M279.997375,92.994308 
	C283.878296,96.146622 287.759216,99.298927 291.667938,102.903870 
	C291.471222,103.563850 291.234802,103.756615 290.986511,103.934792 
	C290.573944,103.919380 290.161407,103.903976 289.264801,103.604347 
	C287.585419,102.829468 286.390106,102.338799 285.194763,101.848137 
	C285.194763,101.848137 285.124695,101.425476 284.926331,101.021912 
	C284.517822,100.368942 284.288055,100.139099 284.038727,99.928810 
	C283.789856,99.445549 283.540985,98.962280 283.006287,98.052017 
	C282.507538,97.379974 282.273804,97.156700 282.019226,96.955208 
	C281.529907,96.392876 281.040619,95.830536 280.294434,94.781799 
	C280.024139,93.861710 280.010742,93.428009 279.997375,92.994308 
z"/>
<path fill="#D64742" opacity="1.000000" stroke="none" 
	d="
M343.867249,105.444077 
	C346.113525,102.683762 348.739777,99.977951 351.673126,97.147812 
	C354.228546,104.251915 347.901611,103.655983 343.867249,105.444077 
z"/>
<path fill="#D64742" opacity="1.000000" stroke="none" 
	d="
M352.422089,96.983322 
	C354.284729,94.605263 356.542847,92.231842 359.073700,89.703720 
	C361.181335,94.531830 359.977570,95.903404 352.422089,96.983322 
z"/>
<path fill="#D64742" opacity="1.000000" stroke="none" 
	d="
M329.408203,119.978416 
	C331.128265,117.744499 333.246796,115.506058 335.671112,113.146378 
	C336.832184,118.915756 336.832184,118.915756 329.408203,119.978416 
z"/>
<path fill="#D64742" opacity="1.000000" stroke="none" 
	d="
M337.428223,111.977356 
	C338.955750,109.937271 340.880707,107.893311 343.076233,105.691895 
	C345.244446,110.594780 344.963623,110.922264 337.428223,111.977356 
z"/>
<path fill="#D64742" opacity="1.000000" stroke="none" 
	d="
M247.529114,42.765335 
	C247.962982,39.611610 249.420609,39.927406 250.378952,41.901203 
	C251.040176,43.263062 250.663254,45.128983 250.750259,46.769638 
	C250.294128,46.885021 249.837997,47.000404 249.381866,47.115788 
	C248.785614,45.775806 248.189362,44.435822 247.529114,42.765335 
z"/>
<path fill="#CC5A56" opacity="1.000000" stroke="none" 
	d="
M276.848511,6.273783 
	C278.840576,5.559964 280.623016,5.034884 282.691772,4.657811 
	C280.635010,6.547227 278.291870,8.288636 275.594543,9.791527 
	C275.207916,8.780146 275.175568,8.007285 275.143188,7.234421 
	C275.641754,6.977118 276.140350,6.719820 276.848511,6.273783 
z"/>
<path fill="#CC5A56" opacity="1.000000" stroke="none" 
	d="
M272.607117,12.990623 
	C271.536987,14.908016 270.088348,16.834063 268.356628,18.927715 
	C268.036255,16.093861 268.350311,13.331870 272.607117,12.990623 
z"/>
<path fill="#D64742" opacity="1.000000" stroke="none" 
	d="
M278.082794,92.948112 
	C274.721893,94.518646 272.903381,93.658012 273.308655,89.529373 
	C274.823059,89.791237 276.053741,90.263031 277.284454,90.734818 
	C277.284454,90.734818 277.179932,90.767738 277.330139,90.941864 
	C277.796234,91.307777 278.112122,91.499550 278.428040,91.691330 
	C278.428040,91.691330 278.364319,91.635582 278.302856,91.957245 
	C278.188507,92.501976 278.135651,92.725044 278.082794,92.948112 
z"/>
<path fill="#CC5A56" opacity="1.000000" stroke="none" 
	d="
M266.370056,82.003235 
	C268.307678,83.091652 270.168182,84.559616 272.194092,86.302551 
	C271.545746,86.678413 270.731995,86.779312 269.402100,86.591141 
	C267.963867,85.508812 267.041840,84.715553 266.119781,83.922302 
	C266.177521,83.409126 266.235229,82.895950 266.370056,82.003235 
z"/>
<path fill="#D64742" opacity="1.000000" stroke="none" 
	d="
M264.868225,23.929718 
	C264.404358,23.974382 264.012207,23.980202 263.326660,23.999413 
	C262.070984,23.253864 261.108765,22.494926 260.146515,21.735989 
	C260.379578,21.391647 260.612640,21.047306 260.845703,20.702963 
	C262.010651,21.079607 263.175629,21.456253 264.634216,22.201546 
	C264.916992,22.958143 264.906128,23.346092 264.895233,23.734041 
	C264.895233,23.734041 264.939911,23.890875 264.868225,23.929718 
z"/>
<path fill="#D64742" opacity="1.000000" stroke="none" 
	d="
M265.929138,84.191193 
	C267.041840,84.715553 267.963867,85.508812 268.991577,86.602371 
	C266.692505,87.855698 264.686218,88.260773 265.929138,84.191193 
z"/>
<path fill="#CC5A56" opacity="1.000000" stroke="none" 
	d="
M277.126648,90.449745 
	C276.053741,90.263031 274.823059,89.791237 273.308167,89.139694 
	C272.823273,88.370903 272.622559,87.781853 272.384033,86.882256 
	C273.887115,87.769356 275.427948,88.967010 277.126648,90.449745 
z"/>
<path fill="#D64742" opacity="1.000000" stroke="none" 
	d="
M261.795502,26.017231 
	C261.573120,26.929079 261.059875,27.788839 260.301117,28.831863 
	C259.619476,28.334694 259.183319,27.654264 258.747131,26.973839 
	C259.666290,26.637609 260.585480,26.301376 261.795502,26.017231 
z"/>
<path fill="#D64742" opacity="1.000000" stroke="none" 
	d="
M285.073639,102.109825 
	C286.390106,102.338799 287.585419,102.829468 288.955139,103.605232 
	C287.737183,103.384064 286.344849,102.877785 285.073639,102.109825 
z"/>
<path fill="#CC5A56" opacity="1.000000" stroke="none" 
	d="
M261.053131,77.339188 
	C262.317261,78.053894 263.662506,79.104477 265.146240,80.443375 
	C263.901215,79.712814 262.517731,78.693939 261.053131,77.339188 
z"/>
<path fill="#D64742" opacity="1.000000" stroke="none" 
	d="
M254.367249,35.801720 
	C253.921310,35.497929 253.617111,35.069405 253.395050,34.601868 
	C253.371201,34.551666 253.825256,34.274479 254.057617,34.102589 
	C254.216003,34.623619 254.374390,35.144650 254.367249,35.801720 
z"/>
<path fill="#CC5A56" opacity="1.000000" stroke="none" 
	d="
M256.113647,73.257996 
	C257.037140,73.651695 258.033142,74.381470 259.181274,75.383636 
	C258.284271,74.968719 257.235229,74.281395 256.113647,73.257996 
z"/>
<path fill="#D64742" opacity="1.000000" stroke="none" 
	d="
M250.489532,69.330643 
	C250.218445,69.626251 249.902084,69.749016 249.585724,69.871773 
	C249.547852,69.730141 249.465088,69.469460 249.478668,69.464333 
	C249.794220,69.345367 250.120209,69.254143 250.489532,69.330643 
z"/>
<path fill="#CC5A56" opacity="1.000000" stroke="none" 
	d="
M254.576218,69.266022 
	C255.086456,70.087418 255.453964,71.194412 255.952652,72.628891 
	C255.533722,71.821457 254.983612,70.686546 254.576218,69.266022 
z"/>
<path fill="#D64742" opacity="1.000000" stroke="none" 
	d="
M262.169006,85.340401 
	C262.020874,85.033699 262.030945,84.762283 262.041016,84.490860 
	C262.315491,84.562820 262.589935,84.634781 262.864410,84.706741 
	C262.685333,84.929718 262.506256,85.152702 262.169006,85.340401 
z"/>
<path fill="#D64742" opacity="1.000000" stroke="none" 
	d="
M275.038422,7.055582 
	C275.175568,8.007285 275.207916,8.780146 275.296692,9.938963 
	C275.353058,10.324919 275.359497,10.378432 275.021973,10.293527 
	C274.474701,10.159762 274.264984,10.110904 274.055267,10.062044 
	C274.348053,9.000275 274.640869,7.938507 275.038422,7.055582 
z"/>
<path fill="#D64742" opacity="1.000000" stroke="none" 
	d="
M268.158447,96.213806 
	C267.987183,96.132950 267.896301,95.979874 267.805450,95.826797 
	C267.949921,95.931732 268.094360,96.036659 268.158447,96.213806 
z"/>
<path fill="#D64742" opacity="1.000000" stroke="none" 
	d="
M359.814514,89.412552 
	C359.961548,88.852791 360.439423,88.295967 361.162048,87.605988 
	C360.986359,88.120384 360.565857,88.767937 359.814514,89.412552 
z"/>
<path fill="#D64742" opacity="1.000000" stroke="none" 
	d="
M279.998291,92.998077 
	C280.010742,93.428009 280.024139,93.861710 280.064697,94.619034 
	C279.682465,94.485046 279.273071,94.027428 279.176636,93.327499 
	C279.662048,93.057396 279.834473,93.029579 280.006927,93.001770 
	C280.006927,93.001770 279.999237,93.001839 279.998291,92.998077 
z"/>
<path fill="#CC5A56" opacity="1.000000" stroke="none" 
	d="
M265.123291,23.558474 
	C264.906128,23.346092 264.916992,22.958143 264.944031,22.278961 
	C265.279053,21.819483 265.597900,21.651237 266.183838,21.435444 
	C266.084381,22.052900 265.717865,22.717903 265.123291,23.558474 
z"/>
<path fill="#CC5A56" opacity="1.000000" stroke="none" 
	d="
M267.837860,19.192373 
	C267.706635,19.731705 267.303772,20.422031 266.641418,21.272995 
	C266.776703,20.736877 267.171448,20.040123 267.837860,19.192373 
z"/>
<path fill="#D64742" opacity="1.000000" stroke="none" 
	d="
M252.990265,65.141006 
	C253.293320,65.423912 253.506912,65.880379 253.741577,66.587181 
	C253.475388,66.329872 253.188080,65.822220 252.990265,65.141006 
z"/>
<path fill="#D64742" opacity="1.000000" stroke="none" 
	d="
M291.204712,104.123840 
	C291.234802,103.756615 291.471222,103.563850 291.847351,103.184875 
	C292.328552,103.078568 292.595459,103.244576 292.900269,103.988953 
	C292.997528,104.645050 292.994324,104.823471 292.991150,105.001892 
	C292.468414,104.772217 291.945679,104.542549 291.204712,104.123840 
z"/>
<path fill="#CC5A56" opacity="1.000000" stroke="none" 
	d="
M279.904846,92.748520 
	C279.834473,93.029579 279.662048,93.057396 279.229279,93.118294 
	C278.968933,93.151382 278.528320,93.034897 278.305542,92.991501 
	C278.135651,92.725044 278.188507,92.501976 278.344666,91.950592 
	C278.899536,91.913284 279.351166,92.204277 279.904846,92.748520 
z"/>
<path fill="#D64742" opacity="1.000000" stroke="none" 
	d="
M273.484314,2.954127 
	C273.520081,2.940997 273.448547,2.967256 273.484314,2.954127 
z"/>
<path fill="#CC5A56" opacity="1.000000" stroke="none" 
	d="
M296.066772,106.638641 
	C296.381989,106.658714 296.803711,106.909729 297.341187,107.389076 
	C297.029083,107.368134 296.601166,107.118858 296.066772,106.638641 
z"/>
<path fill="#CC5A56" opacity="1.000000" stroke="none" 
	d="
M274.182678,11.421885 
	C274.140930,11.785981 273.824738,12.264624 273.245483,12.864823 
	C273.291046,12.503063 273.599670,12.019747 274.182678,11.421885 
z"/>
<path fill="#CC5A56" opacity="1.000000" stroke="none" 
	d="
M259.283142,76.029411 
	C259.348145,75.663307 259.780945,75.811058 259.916992,75.995483 
	C260.045715,76.582985 260.038422,76.986053 259.780487,77.662308 
	C259.529877,77.935493 259.063202,77.874519 259.063202,77.874519 
	C259.114838,77.381516 259.166504,76.888519 259.283142,76.029411 
z"/>
<path fill="#CC5A56" opacity="1.000000" stroke="none" 
	d="
M298.926849,108.714691 
	C298.605347,108.952667 298.173096,108.945908 297.419189,108.912399 
	C297.154419,108.670998 297.211304,108.456337 297.376465,107.926468 
	C297.928497,107.897491 298.372314,108.183723 298.926849,108.714691 
z"/>
<path fill="#CC5A56" opacity="1.000000" stroke="none" 
	d="
M265.340912,80.891655 
	C265.516449,80.826920 265.842621,80.986053 266.294556,81.391617 
	C266.110718,81.463882 265.801117,81.289703 265.340912,80.891655 
z"/>
<path fill="#CC5A56" opacity="1.000000" stroke="none" 
	d="
M274.149658,10.386619 
	C274.264984,10.110904 274.474701,10.159762 274.995239,10.296513 
	C275.278656,10.703615 275.139496,10.962832 274.682678,11.254011 
	C274.399200,11.134376 274.321655,10.922785 274.149658,10.386619 
z"/>
<path fill="#D64742" opacity="1.000000" stroke="none" 
	d="
M328.184662,120.836624 
	C328.035553,120.619720 328.203674,120.346245 328.741791,120.082703 
	C328.805969,120.267067 328.602661,120.496201 328.184662,120.836624 
z"/>
<path fill="#CC5A56" opacity="1.000000" stroke="none" 
	d="
M294.221344,105.047493 
	C294.389801,104.998024 294.720123,105.167137 295.169983,105.591591 
	C294.987427,105.653313 294.685333,105.459694 294.221344,105.047493 
z"/>
<path fill="#CC5A56" opacity="1.000000" stroke="none" 
	d="
M293.274597,104.990067 
	C292.994324,104.823471 292.997528,104.645050 293.015808,104.199219 
	C293.330750,104.091423 293.630676,104.251038 294.024841,104.651962 
	C293.932098,104.921600 293.745087,104.949921 293.274597,104.990067 
z"/>
<path fill="#D64742" opacity="1.000000" stroke="none" 
	d="
M259.157471,77.972260 
	C259.063202,77.874519 259.529877,77.935493 259.763306,77.964600 
	C259.996765,77.993713 259.632172,78.152016 259.632172,78.152016 
	C259.632172,78.152016 259.251709,78.069992 259.157471,77.972260 
z"/>
<path fill="#D64742" opacity="1.000000" stroke="none" 
	d="
M284.183044,100.125801 
	C284.288055,100.139099 284.517822,100.368942 284.873779,100.814255 
	C284.767395,100.802643 284.536652,100.573524 284.183044,100.125801 
z"/>
<path fill="#D64742" opacity="1.000000" stroke="none" 
	d="
M282.168518,97.146538 
	C282.273804,97.156700 282.507538,97.379974 282.868835,97.817429 
	C282.764343,97.806381 282.531219,97.582390 282.168518,97.146538 
z"/>
<path fill="#D64742" opacity="1.000000" stroke="none" 
	d="
M253.655548,53.224361 
	C253.669357,53.320740 253.514069,53.550751 253.184311,53.912827 
	C253.174026,53.819088 253.332886,53.590122 253.655548,53.224361 
z"/>
<path fill="#D64742" opacity="1.000000" stroke="none" 
	d="
M336.211517,112.833069 
	C336.068054,112.625244 336.228424,112.363625 336.741577,112.109909 
	C336.805481,112.287674 336.612488,112.508163 336.211517,112.833069 
z"/>
<path fill="#CC5A56" opacity="1.000000" stroke="none" 
	d="
M305.417145,2.896948 
	C313.660217,1.040591 321.527740,3.386181 329.047729,7.689677 
	C321.292999,6.300595 313.561554,4.644114 305.417145,2.896948 
z"/>
<path fill="#CC5A56" opacity="1.000000" stroke="none" 
	d="
M342.804443,16.689960 
	C345.253418,18.858189 347.880768,21.300196 350.598877,24.083729 
	C348.120728,21.938084 345.551727,19.450911 342.804443,16.689960 
z"/>
<path fill="#CC5A56" opacity="1.000000" stroke="none" 
	d="
M335.853851,11.614775 
	C337.380432,12.357889 339.098053,13.361425 340.897461,14.703653 
	C339.334473,13.986629 337.689667,12.930913 335.853851,11.614775 
z"/>
<path fill="#CC5A56" opacity="1.000000" stroke="none" 
	d="
M285.354218,4.369488 
	C286.909637,3.921888 288.831024,3.499344 291.174835,3.131363 
	C289.638245,3.588799 287.679199,3.991671 285.354218,4.369488 
z"/>
<path fill="#CC5A56" opacity="1.000000" stroke="none" 
	d="
M350.720062,24.689892 
	C351.618042,25.477097 352.609680,26.564552 353.582825,28.016880 
	C352.647430,27.251219 351.730591,26.120682 350.720062,24.689892 
z"/>
<path fill="#CC5A56" opacity="1.000000" stroke="none" 
	d="
M331.268250,9.126709 
	C332.510956,9.563125 334.007874,10.224308 335.656250,11.159636 
	C334.379303,10.739681 332.950867,10.045579 331.268250,9.126709 
z"/>
<path fill="#CC5A56" opacity="1.000000" stroke="none" 
	d="
M341.098419,15.286529 
	C341.458099,15.328053 341.960449,15.631661 342.602173,16.205582 
	C342.241394,16.166800 341.741241,15.857705 341.098419,15.286529 
z"/>
<path fill="#CC5A56" opacity="1.000000" stroke="none" 
	d="
M278.292847,91.437103 
	C278.112122,91.499550 277.796234,91.307777 277.315552,90.889053 
	C277.486420,90.835701 277.822021,91.009293 278.292847,91.437103 
z"/>
<path fill="#C15750" opacity="1.000000" stroke="none" 
	d="
M106.666496,272.578156 
	C105.878716,268.926849 105.157089,264.851898 104.594772,260.427429 
	C105.413612,264.103455 106.073128,268.128967 106.666496,272.578156 
z"/>
<path fill="#A6A788" opacity="1.000000" stroke="none" 
	d="
M112.688660,287.610596 
	C112.577477,287.636292 112.253937,287.519440 111.727417,287.230835 
	C111.841721,287.195435 112.159012,287.331757 112.688660,287.610596 
z"/>
<path fill="#C5A49F" opacity="1.000000" stroke="none" 
	d="
M294.333374,308.275238 
	C297.057098,308.184235 300.131683,308.158173 303.189423,308.372253 
	C307.450287,308.670624 311.730927,308.952515 315.936615,309.645172 
	C317.648834,309.927155 319.186676,311.268036 320.855225,312.454376 
	C312.163269,311.336853 303.419983,309.892059 294.333374,308.275238 
z"/>
<path fill="#C5A49F" opacity="1.000000" stroke="none" 
	d="
M288.963776,307.252014 
	C289.074768,307.214844 289.311340,307.361481 289.679169,307.678650 
	C289.558990,307.733154 289.318634,307.595398 288.963776,307.252014 
z"/>
</svg>