<svg version="1.1" id="Layer_1" xmlns="http://www.w3.org/2000/svg" xmlns:xlink="http://www.w3.org/1999/xlink" x="0px" y="0px"
	 width="100%" viewBox="0 0 1146 1110" enable-background="new 0 0 1146 1110" xml:space="preserve">
<path fill="#FFFFFF" opacity="1.000000" stroke="none" 
	d="
M1147.000000,380.000000 
	C1147.000000,623.572449 1147.000000,867.144958 1147.000000,1111.000000 
	C1023.975220,1111.000000 900.950256,1111.000000 777.621338,1110.635010 
	C780.923889,1109.318848 784.614929,1108.608032 788.122864,1107.375854 
	C806.366089,1100.967896 818.831299,1083.197876 818.935608,1064.295044 
	C819.149902,1025.466797 819.000000,986.636414 819.000000,947.806946 
	C819.000000,946.019470 819.000000,944.231995 819.000000,942.257446 
	C808.473145,942.257446 798.404785,942.257446 788.166748,942.257446 
	C788.037781,945.168701 787.919189,947.845703 787.786438,950.841980 
	C784.888977,948.854004 782.543457,947.116760 780.075928,945.574707 
	C771.143799,939.992615 761.043274,940.074829 751.343567,941.296570 
	C742.932556,942.355957 735.063660,945.759521 728.735840,952.394470 
	C719.798889,961.765076 717.523071,973.325623 717.166443,985.291992 
	C716.771912,998.530762 717.175354,1011.844604 718.161438,1025.056396 
	C718.904419,1035.011719 722.539978,1044.580566 730.606323,1050.835449 
	C745.114624,1062.085449 761.369934,1063.238037 778.194824,1056.279419 
	C781.177124,1055.045898 783.832764,1053.022583 786.757263,1051.294312 
	C787.863464,1063.337402 787.091064,1074.854370 775.772522,1080.802002 
	C762.616882,1087.714966 750.222717,1083.861816 739.346008,1073.875122 
	C734.986938,1078.329346 730.777100,1082.598633 726.603333,1086.902954 
	C718.311768,1095.453857 716.044678,1094.031982 728.459473,1101.859985 
	C734.971558,1105.966187 742.778076,1108.019531 750.000000,1111.000000 
	C500.333344,1111.000000 250.666656,1111.000000 1.000000,1111.000000 
	C1.000000,1096.242920 1.000000,1081.584106 1.468657,1066.462646 
	C13.419430,1066.000000 24.901545,1066.000000 36.503864,1066.000000 
	C39.869080,1055.912231 43.177544,1045.994507 46.511543,1036.000366 
	C64.742737,1036.000366 82.726059,1036.069580 100.707726,1035.927856 
	C103.503578,1035.905762 104.305626,1037.174683 105.038452,1039.440918 
	C107.583038,1047.310059 110.224243,1055.150879 113.035767,1062.927612 
	C113.477455,1064.149170 114.975746,1065.842896 116.013947,1065.863159 
	C126.948608,1066.077271 137.889069,1065.995605 149.911087,1065.995605 
	C129.248367,1009.416077 108.890564,953.671509 88.559578,898.000366 
	C80.065674,898.000366 72.069206,897.876770 64.083900,898.119934 
	C62.726555,898.161316 60.666874,899.490173 60.202972,900.708374 
	C56.109463,911.457764 52.338337,922.329224 48.405872,933.140625 
	C36.776119,965.113770 25.150122,997.088379 13.449553,1029.035522 
	C9.410305,1040.064209 5.156020,1051.014160 0.999999,1062.000000 
	C1.000000,708.333313 1.000000,354.666656 1.000000,1.000000 
	C18.754995,1.000000 36.414860,1.000000 54.397011,1.362799 
	C33.395016,6.284612 18.155420,23.740808 18.129164,47.754330 
	C18.063520,107.787216 18.358698,167.825287 19.237583,227.850632 
	C19.429131,240.932678 21.949032,254.120743 24.659561,266.994049 
	C29.097752,288.072723 38.066349,307.508270 49.082924,325.933044 
	C52.882633,332.287933 57.639168,338.070679 61.980572,344.465851 
	C66.373116,350.082855 70.307014,355.802490 75.206734,360.518738 
	C84.910835,369.859528 94.704819,379.215302 105.308235,387.478485 
	C113.526031,393.882568 123.031235,398.634613 132.123505,404.437805 
	C149.394119,413.671753 167.141678,420.994354 186.182053,424.485168 
	C197.021103,426.472321 208.050980,427.418488 219.427689,428.908325 
	C231.501862,428.975464 243.237976,429.890289 254.758774,428.707581 
	C266.944458,427.456635 278.925140,424.208771 291.368439,421.785828 
	C296.466797,420.147858 301.236755,418.677734 305.909454,416.945282 
	C324.056183,410.217163 341.348328,401.852356 356.967346,389.680298 
	C361.778473,385.914490 366.405670,382.463013 371.343079,378.862610 
	C373.471191,376.825073 375.289124,374.936523 377.432861,373.010254 
	C379.293427,371.571625 380.828247,370.170685 382.651123,368.588318 
	C383.974182,366.974457 385.009186,365.542023 386.353516,363.977173 
	C388.447632,362.231445 390.232452,360.618073 392.308472,358.884613 
	C393.005920,357.841034 393.412201,356.917542 393.962189,355.688629 
	C395.411774,354.258270 396.717651,353.133362 398.324585,351.892578 
	C399.444031,350.553070 400.262390,349.329407 401.407898,348.189026 
	C407.567291,354.759155 413.005371,361.664581 419.333984,367.624329 
	C426.833069,374.686310 434.803589,381.335632 443.101776,387.440765 
	C456.073181,396.984009 469.597473,405.731476 485.138367,411.440735 
	C508.917236,421.572601 533.505432,427.147308 559.458618,428.906494 
	C575.369324,427.983124 590.854614,427.369385 606.245422,425.818115 
	C613.258484,425.111237 620.084839,422.552338 627.387085,420.894958 
	C637.215637,417.619476 646.905945,414.849182 656.017395,410.782196 
	C664.693420,406.909607 672.765320,401.683472 681.461609,397.023010 
	C686.039612,394.281433 690.391113,391.752930 694.454895,388.825104 
	C711.305359,376.684906 726.516418,362.818420 738.992188,345.665375 
	C749.050537,333.717865 756.408325,320.527283 763.080017,306.849854 
	C777.399353,277.493835 783.836365,246.481827 784.171448,213.911758 
	C784.268311,204.500259 785.382202,194.809845 787.936401,185.787003 
	C791.054260,174.773071 796.181458,164.327927 800.676086,153.376007 
	C807.680115,144.505585 813.876404,135.351608 821.395813,127.458176 
	C827.430237,121.123695 835.069092,116.317665 842.342529,110.795761 
	C851.842163,106.517944 860.765869,101.639839 870.220825,98.238945 
	C877.812134,95.508385 886.047485,94.568176 894.461060,92.904045 
	C905.754150,93.557320 916.830139,92.919502 927.346558,95.047318 
	C939.150330,97.435600 950.448364,102.323303 962.137268,106.426689 
	C984.301514,117.961082 1001.073914,134.601578 1012.997375,156.117767 
	C1023.801392,175.613892 1028.364990,196.493027 1028.154663,218.879852 
	C1027.679443,269.464478 1027.964966,320.056732 1028.086792,370.645538 
	C1028.095947,374.447815 1029.263184,378.247314 1029.932983,382.450684 
	C1032.919434,397.709869 1040.882935,409.448853 1053.162109,417.938477 
	C1066.762817,427.341766 1081.973999,431.164062 1098.449829,427.923157 
	C1114.538574,424.758484 1128.126465,417.111237 1136.812988,402.917450 
	C1141.139526,395.848022 1143.661621,387.674225 1147.000000,380.000000 
M697.494019,723.992188 
	C688.056885,716.923279 677.460632,715.272217 665.830566,715.757751 
	C652.967468,716.294739 642.543518,721.171448 633.527100,729.844421 
	C613.713501,711.491394 600.127014,710.509705 571.786133,725.605286 
	C571.786133,722.645203 571.786133,719.929749 571.786133,717.377808 
	C560.925476,717.377808 550.533508,717.377808 540.231079,717.377808 
	C540.231079,758.355286 540.231079,798.954468 540.231079,839.729126 
	C551.186829,839.729126 561.910217,839.729126 573.000000,839.729126 
	C573.000000,837.671082 573.000000,835.869202 573.000000,834.067383 
	C573.000000,810.408020 572.962708,786.748657 573.015503,763.089417 
	C573.042603,750.944580 585.268494,742.009338 596.938965,745.430542 
	C606.433167,748.213684 610.615112,753.548584 610.858459,765.198669 
	C611.338379,788.181519 611.000000,811.181519 611.000000,834.174377 
	C611.000000,835.963196 611.000000,837.752014 611.000000,839.738281 
	C621.834412,839.738281 632.224548,839.738281 643.000000,839.738281 
	C643.000000,817.190002 642.948730,794.901001 643.044983,772.612671 
	C643.063354,768.358887 643.479736,764.083496 644.034729,759.860352 
	C645.110229,751.676819 652.785583,745.539917 660.979126,744.890747 
	C672.049744,744.013611 679.480713,751.703735 680.884949,759.369934 
	C681.709595,763.871643 681.929138,768.532410 681.953247,773.124084 
	C682.060852,793.617188 682.000000,814.111145 682.000000,834.604797 
	C682.000000,836.352600 682.000000,838.100342 682.000000,839.762817 
	C693.022522,839.762817 703.295349,839.762817 713.488464,839.762817 
	C713.701111,839.241516 713.926514,838.949036 713.923584,838.658936 
	C713.626831,809.409607 713.741089,780.146240 712.775330,750.918701 
	C712.422119,740.230530 706.811646,731.153687 697.494019,723.992188 
M64.113770,704.389221 
	C69.822792,701.716614 75.842957,701.231079 81.901802,702.461609 
	C92.128853,704.538696 98.114952,711.266602 101.521164,720.835083 
	C102.100395,722.462280 103.959282,724.774658 105.286049,724.814697 
	C116.029327,725.139343 126.786713,724.996887 137.794113,724.996887 
	C136.780792,720.749878 136.035843,716.905823 134.941269,713.164062 
	C129.995575,696.257141 119.830597,683.459839 103.625984,676.418823 
	C88.810089,669.981201 73.061111,668.827576 57.495586,673.154663 
	C39.646328,678.116638 26.422276,688.862976 18.773033,706.347290 
	C13.308183,718.838684 13.705812,732.036072 13.278162,744.958191 
	C12.765963,760.435120 14.048021,776.000000 15.089079,791.490723 
	C15.900568,803.565552 20.836924,814.130371 29.346277,822.792725 
	C40.024696,833.663147 52.885315,839.479980 68.242233,841.261169 
	C81.103714,842.752991 93.197060,840.947754 104.431129,835.626770 
	C124.570389,826.087952 134.544189,808.917480 137.781708,787.000000 
	C129.079773,787.000000 120.745132,787.328796 112.451149,786.889832 
	C106.455902,786.572449 101.454697,786.767578 100.335968,794.160400 
	C100.197578,795.074951 99.471275,795.895325 99.043404,796.771973 
	C91.239128,812.762573 69.589996,815.067322 57.323090,803.912170 
	C49.002865,796.346069 48.534451,786.102539 48.233318,776.377136 
	C47.720570,759.817261 48.257450,743.189880 49.158630,726.634705 
	C49.681038,717.037781 54.187798,709.138672 64.113770,704.389221 
M952.028931,177.545227 
	C948.211182,173.725586 944.773376,169.403091 940.505981,166.178589 
	C926.480652,155.581024 910.835754,152.019150 893.404724,155.761810 
	C879.853943,158.671356 869.013245,165.336411 860.346252,176.080185 
	C849.910400,189.016800 846.103699,204.007843 848.312256,219.946960 
	C850.351013,234.660507 857.094177,247.408386 869.317078,256.950134 
	C883.562805,268.071014 899.664307,271.375183 916.891846,268.395081 
	C931.175476,265.924286 943.074402,258.427979 951.805664,246.618637 
	C958.454163,237.626434 962.155029,227.424835 963.000549,216.231720 
	C964.055786,202.263809 960.138733,189.660355 952.028931,177.545227 
M354.498322,789.000000 
	C359.924255,789.000000 365.350189,789.000000 371.767731,789.000000 
	C370.798553,778.117249 370.537079,767.874451 368.840912,757.875061 
	C366.395020,743.455750 359.202789,731.338440 346.675842,723.471252 
	C335.975372,716.751099 323.994812,714.827576 311.180634,715.833862 
	C292.319092,717.315125 278.450928,726.287476 270.280548,742.734192 
	C260.716461,761.986389 260.846466,782.635315 265.701111,803.201111 
	C269.762054,820.404724 279.730743,833.011597 297.006531,838.369080 
	C307.483093,841.618164 318.258759,842.484009 329.456696,841.233643 
	C343.459106,839.669983 354.855560,833.808899 364.989136,824.558472 
	C367.378326,822.377625 367.557800,820.744202 365.055206,818.505859 
	C359.082275,813.163757 353.275421,807.636108 347.399994,802.182007 
	C335.046661,816.235840 317.976410,816.177917 307.067627,810.945068 
	C298.855774,807.005920 294.092072,797.437561 295.657837,789.000000 
	C314.900543,789.000000 334.199646,789.000000 354.498322,789.000000 
M1031.074829,1055.566650 
	C1035.620239,1058.049927 1039.965454,1061.044067 1044.749634,1062.917603 
	C1057.617432,1067.956787 1071.081543,1068.152344 1084.477295,1065.880127 
	C1097.577637,1063.658325 1108.125732,1056.560181 1117.625854,1046.739380 
	C1111.922119,1041.169800 1106.397461,1036.108276 1101.289551,1030.656372 
	C1098.450562,1027.626099 1096.608154,1027.496216 1093.748779,1030.636963 
	C1083.978882,1041.368164 1058.269287,1043.202759 1050.157959,1030.462646 
	C1047.130127,1025.706909 1045.373291,1020.141846 1042.540039,1013.840698 
	C1069.437378,1013.840698 1094.640015,1013.840698 1120.470581,1013.840698 
	C1119.957886,1003.831970 1120.210693,994.321838 1118.825928,985.056519 
	C1116.646729,970.476135 1109.682007,958.344971 1097.309814,949.701233 
	C1087.202515,942.639893 1075.911011,940.831421 1063.812256,940.887634 
	C1042.154053,940.988281 1023.886108,954.533447 1017.010559,974.753296 
	C1012.698059,987.435669 1011.518005,1000.377808 1012.831116,1013.834900 
	C1014.374573,1029.651733 1018.699646,1043.864990 1031.074829,1055.566650 
M558.009583,1049.484375 
	C559.792419,1048.051392 560.595154,1046.834106 558.386414,1044.778809 
	C553.510193,1040.241211 548.724304,1035.574829 544.263672,1030.634033 
	C541.421265,1027.485596 539.586304,1027.651245 536.713806,1030.657959 
	C527.456238,1040.347900 515.631592,1040.884399 503.878479,1037.705444 
	C492.961090,1034.752441 486.488403,1023.505493 488.838348,1013.713379 
	C513.772461,1013.713379 538.829590,1013.713379 564.444702,1013.713379 
	C563.940552,1005.763977 563.470764,998.348999 562.999878,990.934143 
	C562.153809,977.611267 557.429260,965.742310 548.379333,956.028870 
	C537.671875,944.536194 523.864990,940.713562 508.386780,940.909790 
	C483.358337,941.227051 466.516388,954.858643 459.528625,977.138306 
	C453.896912,995.094421 454.174744,1013.587463 459.448242,1031.523193 
	C463.658478,1045.842773 472.539490,1056.994141 487.119080,1062.594727 
	C496.609100,1066.240234 506.444519,1067.227173 516.541931,1067.048584 
	C532.506714,1066.765869 546.113892,1061.106323 558.009583,1049.484375 
M185.444870,1044.945190 
	C191.597290,1057.491455 201.743866,1064.806641 215.435074,1066.640747 
	C228.629822,1068.408081 241.001297,1065.813354 252.139374,1056.085938 
	C252.139374,1060.141602 252.139374,1062.896973 252.139374,1065.691162 
	C262.931458,1065.691162 273.322174,1065.691162 283.675812,1065.691162 
	C283.675812,1024.340820 283.675812,983.300171 283.675812,942.360229 
	C272.625275,942.360229 261.902161,942.360229 251.000000,942.360229 
	C251.000000,968.026062 250.574280,993.342285 251.175949,1018.634033 
	C251.486252,1031.677002 236.663589,1042.381470 223.594635,1035.866333 
	C215.670944,1031.916138 213.162201,1024.787109 213.082123,1016.795166 
	C212.850174,993.645630 213.000000,970.492310 213.000000,947.340454 
	C213.000000,945.598450 213.000000,943.856445 213.000000,942.252258 
	C201.942032,942.252258 191.670929,942.252258 181.000000,942.252258 
	C181.000000,944.283386 181.000000,946.080750 181.000000,947.878113 
	C181.000000,974.028015 180.755112,1000.182007 181.184402,1026.324829 
	C181.282990,1032.328857 183.698517,1038.294800 185.444870,1044.945190 
M942.276855,724.949890 
	C941.520325,724.692810 940.134888,724.488586 940.108215,724.170166 
	C939.918579,721.913269 940.007324,719.632935 940.007324,717.301758 
	C929.418823,717.301758 919.360168,717.301758 909.315063,717.301758 
	C909.315063,758.310242 909.315063,799.016174 909.315063,839.649353 
	C920.022583,839.649353 930.411804,839.649353 941.000000,839.649353 
	C941.000000,816.828552 940.952881,794.357605 941.044495,771.887207 
	C941.060425,767.968140 941.464294,764.023010 942.028748,760.139221 
	C943.535889,749.770386 951.490784,744.217651 963.427795,745.001648 
	C971.752869,745.548340 978.994629,753.851074 978.997437,762.887085 
	C979.004883,786.703857 979.000000,810.520630 979.000000,834.337402 
	C979.000000,836.110474 979.000000,837.883606 979.000000,839.685974 
	C990.281311,839.685974 1001.002502,839.685974 1012.000000,839.685974 
	C1012.000000,837.568909 1012.000000,835.758240 1012.000000,833.947510 
	C1012.000000,810.130737 1012.132385,786.312805 1011.907715,762.498108 
	C1011.851013,756.483032 1011.440979,750.256409 1009.819824,744.514832 
	C1006.263733,731.920410 998.467651,722.635376 985.820435,718.032227 
	C978.002319,715.186584 969.746399,714.235657 961.856812,716.247559 
	C955.268372,717.927673 949.215881,721.709595 942.276855,724.949890 
M971.000000,1039.500000 
	C971.000000,1030.167969 971.124878,1020.833801 970.968872,1011.504333 
	C970.766663,999.411804 971.352051,987.191956 969.805359,975.259338 
	C966.339844,948.521973 943.958984,937.152222 919.903076,941.801270 
	C912.979431,943.139343 906.550232,947.035950 899.844604,949.779785 
	C899.844604,947.683472 899.844604,945.059937 899.844604,942.262085 
	C889.182068,942.262085 878.783203,942.262085 868.299805,942.262085 
	C868.299805,983.580200 868.299805,1024.635620 868.299805,1065.658203 
	C878.995972,1065.658203 889.388977,1065.658203 900.000000,1065.658203 
	C900.000000,1056.334717 899.891479,1047.350098 900.023132,1038.369019 
	C900.276123,1021.112610 900.487488,1003.852173 901.081421,986.605957 
	C901.334473,979.256897 905.508850,973.936035 912.332642,971.359375 
	C919.561401,968.629761 926.382996,969.747925 932.469727,974.919556 
	C937.927856,979.556946 938.819763,985.953613 938.894653,992.272583 
	C939.163391,1014.933167 939.000000,1037.598877 939.000000,1060.262695 
	C939.000000,1062.043701 939.000000,1063.824707 939.000000,1065.704834 
	C949.900696,1065.704834 960.292542,1065.704834 971.000000,1065.704834 
	C971.000000,1057.108154 971.000000,1048.804077 971.000000,1039.500000 
M803.502686,716.000000 
	C788.061523,717.189026 775.881836,724.151001 767.046936,736.833923 
	C759.392090,747.822632 758.719238,760.734924 758.207764,773.353027 
	C757.823975,782.821533 758.703003,792.464111 760.146912,801.855896 
	C762.519165,817.286438 770.720886,829.008240 784.998596,835.984680 
	C796.666931,841.686035 808.992981,843.206116 821.708557,840.916443 
	C830.952637,839.252014 839.211975,835.521240 846.437805,829.189148 
	C858.640015,818.496399 862.241394,804.350220 862.859131,789.197632 
	C863.268982,779.143188 862.889709,768.976929 861.865173,758.962891 
	C860.426941,744.904236 854.357727,733.066467 842.400879,724.791931 
	C830.899292,716.832520 818.129883,714.358154 803.502686,716.000000 
M411.070404,998.701477 
	C418.065125,979.942261 425.059875,961.182983 432.212006,942.001648 
	C421.278778,942.001648 410.960358,941.883423 400.651947,942.151062 
	C399.360016,942.184631 397.435455,944.022461 396.961700,945.417480 
	C391.177887,962.448914 385.626801,979.559326 379.978119,996.636902 
	C378.152832,1002.155273 376.218903,1007.637817 374.123962,1013.751587 
	C373.404968,1012.577087 373.174500,1012.321655 373.076172,1012.022766 
	C365.782959,989.855408 358.533264,967.673584 351.137085,945.540649 
	C350.677856,944.166443 349.098114,942.185181 347.999146,942.158508 
	C337.421997,941.902039 326.836151,942.004883 315.764801,942.004883 
	C331.149841,983.755493 346.299286,1024.866821 361.456635,1065.999512 
	C369.122955,1065.999512 376.450409,1066.158325 383.759552,1065.863403 
	C385.193146,1065.805542 387.336945,1064.282715 387.834473,1062.945068 
	C395.683685,1041.844238 403.317078,1020.663025 411.070404,998.701477 
M1117.215820,720.119934 
	C1110.271484,720.119934 1103.327271,720.119934 1095.895264,720.119934 
	C1095.895264,707.758972 1095.895264,696.025818 1095.895264,684.343506 
	C1085.001099,684.343506 1074.607666,684.343506 1063.727051,684.343506 
	C1063.727051,696.416443 1063.727051,708.151245 1063.727051,720.184143 
	C1059.286133,720.184143 1055.340088,720.184143 1051.292969,720.184143 
	C1051.292969,728.564392 1051.292969,736.624634 1051.292969,745.176697 
	C1055.645508,745.176697 1059.716553,745.176697 1064.000000,745.176697 
	C1064.000000,758.319336 1063.873535,770.969055 1064.040649,783.614929 
	C1064.171753,793.539062 1063.834961,803.575256 1065.210815,813.349915 
	C1066.899048,825.342468 1073.926392,834.773499 1085.828369,837.696777 
	C1096.026367,840.201599 1106.907715,839.924561 1117.711426,840.898132 
	C1117.711426,830.777527 1117.711426,822.050964 1117.711426,813.000000 
	C1115.455688,813.000000 1113.483887,812.953979 1111.514771,813.007507 
	C1098.856934,813.351624 1096.022949,810.250854 1096.004883,797.537109 
	C1095.984131,783.038147 1096.000000,768.539185 1096.000000,754.040222 
	C1096.000000,751.105408 1096.000000,748.170532 1096.000000,744.765991 
	C1103.707764,744.765991 1110.779663,744.765991 1117.883423,744.765991 
	C1117.883423,736.447327 1117.883423,728.625854 1117.215820,720.119934 
M189.507507,831.005188 
	C191.553589,832.638123 193.417679,834.600220 195.676163,835.849060 
	C207.844681,842.577698 220.992706,839.187134 233.779144,840.025085 
	C233.779144,830.678162 233.779144,822.070618 233.779144,813.000000 
	C230.119904,813.000000 226.659378,813.122559 223.210327,812.975769 
	C214.682663,812.612915 210.898956,809.739502 210.932037,800.874878 
	C211.085663,759.716431 211.000000,718.557190 211.000000,677.398193 
	C211.000000,675.649963 211.000000,673.901794 211.000000,672.237671 
	C199.978165,672.237671 189.704376,672.237671 179.000000,672.237671 
	C179.000000,674.248840 179.000000,676.044067 179.000000,677.839355 
	C179.000000,720.664673 178.924011,763.490234 179.060120,806.315125 
	C179.089554,815.573425 181.909958,823.990784 189.507507,831.005188 
M606.000000,986.500000 
	C606.000000,1012.904114 606.000000,1039.308228 606.000000,1065.659668 
	C617.340088,1065.659668 628.059631,1065.659668 639.000000,1065.659668 
	C639.000000,1040.528564 639.062622,1015.736877 638.965454,990.945740 
	C638.932129,982.449890 642.228149,976.023499 649.799072,972.070129 
	C657.625427,967.983337 664.678467,969.953857 670.906189,975.518799 
	C673.076965,977.458496 674.415405,977.189148 676.280212,975.271362 
	C681.850769,969.542847 687.554382,963.943665 693.205261,958.293213 
	C698.324829,953.174011 698.161560,952.201965 692.019897,947.988586 
	C680.376831,940.000854 667.697632,938.917480 654.595581,942.940857 
	C648.888977,944.693176 643.610168,947.838501 637.846802,950.484497 
	C637.846802,947.850342 637.846802,945.094299 637.846802,942.309692 
	C627.060364,942.309692 616.672729,942.309692 606.000000,942.309692 
	C606.000000,956.911621 606.000000,971.205811 606.000000,986.500000 
M470.909058,745.035645 
	C473.934784,746.856750 476.856750,748.898010 480.034851,750.395813 
	C481.397552,751.038086 484.011597,751.275513 484.832825,750.461670 
	C491.653900,743.701111 498.241913,736.700439 504.722443,729.609680 
	C505.327332,728.947815 505.231720,726.625244 504.573608,725.981934 
	C493.773560,715.426392 480.652039,713.355103 466.634644,716.927551 
	C459.869934,718.651672 453.525726,722.025635 446.802673,724.728333 
	C446.802673,722.653503 446.802673,719.940247 446.802673,717.365845 
	C435.945160,717.365845 425.556091,717.365845 415.378235,717.365845 
	C415.378235,758.438416 415.378235,799.144348 415.378235,839.763306 
	C426.361206,839.763306 436.964386,839.763306 448.000000,839.763306 
	C448.000000,837.744263 448.000000,835.955261 448.000000,834.166260 
	C448.000000,811.848877 448.339417,789.524353 447.866333,767.216980 
	C447.603455,754.822205 455.630768,743.165222 470.909058,745.035645 
M201.248535,624.983398 
	C206.366348,624.983398 211.484161,624.983398 216.749619,624.983398 
	C216.749619,594.482300 216.749619,564.427734 216.749619,534.279480 
	C210.434708,534.279480 204.373550,534.279480 197.790527,534.279480 
	C197.790527,551.842102 197.790527,569.130920 197.790527,587.196716 
	C196.508606,585.182983 195.742676,583.966187 194.963593,582.757935 
	C185.297928,567.768311 175.660004,552.760681 165.917191,537.821350 
	C164.947784,536.334900 163.424820,534.309753 162.006866,534.178711 
	C157.119873,533.727234 152.165527,534.005066 147.331238,534.005066 
	C147.331238,564.681396 147.331238,594.736450 147.331238,624.639343 
	C153.400833,624.639343 159.133743,624.639343 165.365753,624.639343 
	C165.365753,607.013550 165.365753,589.745972 165.365753,571.338074 
	C171.034851,580.347168 175.912155,588.376221 181.068817,596.221741 
	C187.394150,605.845276 193.953110,615.315247 201.248535,624.983398 
M625.999939,593.636047 
	C626.072327,592.190796 626.144653,590.745605 626.231995,589.000000 
	C628.165588,589.000000 629.849243,589.249207 631.431274,588.953918 
	C636.489563,588.009888 639.077332,590.255188 641.073914,594.816956 
	C645.542114,605.025879 650.534546,615.005432 655.097717,624.623657 
	C662.784851,624.623657 669.809998,624.623657 677.201782,624.623657 
	C670.441223,611.560059 663.914490,598.948242 657.390076,586.340942 
	C667.817810,581.800049 673.466797,573.706787 673.268127,560.556396 
	C673.123718,551.000854 666.282654,537.805664 655.136047,536.269775 
	C639.724976,534.146362 624.034424,534.051819 608.237427,533.074402 
	C608.237427,564.519775 608.237427,594.560364 608.237427,624.737366 
	C614.202820,624.737366 619.928223,624.737366 626.000000,624.737366 
	C626.000000,614.523254 626.000000,604.567688 625.999939,593.636047 
M50.421753,626.000000 
	C69.538544,626.001465 82.562332,612.950562 82.928146,593.292358 
	C83.265732,575.151611 83.000000,556.999695 83.000000,538.852661 
	C83.000000,537.275146 83.000000,535.697632 83.000000,534.221069 
	C76.309479,534.221069 70.367043,534.221069 64.000000,534.221069 
	C64.000000,536.043579 64.000000,537.670044 64.000000,539.296570 
	C64.000000,557.277100 64.007706,575.257629 63.996868,593.238159 
	C63.991131,602.749207 58.343391,608.993958 49.781910,609.000000 
	C39.694965,609.007019 34.011101,603.370850 34.003712,593.303589 
	C33.990520,575.323059 33.999996,557.342529 33.999996,539.362000 
	C33.999996,537.616333 33.999996,535.870728 33.999996,534.217590 
	C27.316605,534.217590 21.374334,534.217590 15.222412,534.217590 
	C15.136713,535.036316 15.014141,535.663025 15.013767,536.289856 
	C15.001955,556.101746 14.933443,575.914124 15.076898,595.724976 
	C15.097548,598.576904 16.038982,601.448364 16.740227,604.264465 
	C19.485405,615.289062 31.811838,627.152466 50.421753,626.000000 
M505.737793,551.011230 
	C519.021362,551.011230 532.304993,551.011230 545.739746,551.011230 
	C545.739746,545.143555 545.739746,539.747437 545.739746,534.290405 
	C525.749329,534.290405 506.020508,534.290405 486.319702,534.290405 
	C486.319702,564.643738 486.319702,594.705566 486.319702,625.000000 
	C496.451447,625.000000 506.265015,625.000000 516.078552,625.000000 
	C525.999939,625.000000 535.921265,625.000000 545.618835,625.000000 
	C545.618835,619.225647 545.618835,614.155945 545.618835,608.821777 
	C531.625610,608.821777 518.012085,608.821777 504.266052,608.821777 
	C504.266052,601.798828 504.266052,595.069580 504.266052,587.874573 
	C516.260498,587.874573 527.997620,587.874573 539.671936,587.874573 
	C539.671936,582.002930 539.671936,576.606934 539.671936,570.750610 
	C527.612366,570.750610 515.875854,570.750610 503.619049,570.750610 
	C504.025970,563.872009 504.403748,557.485352 505.737793,551.011230 
M1084.565674,571.000000 
	C1082.131836,571.000000 1079.697998,571.000000 1077.330078,571.000000 
	C1077.330078,563.997986 1077.330078,557.599854 1077.330078,550.747375 
	C1091.390991,550.747375 1105.126221,550.747375 1118.785889,550.747375 
	C1118.785889,544.998596 1118.785889,539.718811 1118.785889,534.000000 
	C1108.792358,534.000000 1099.007080,534.000000 1089.221680,534.000000 
	C1079.275269,534.000000 1069.328735,534.000000 1059.270752,534.000000 
	C1059.270752,564.546448 1059.270752,594.606689 1059.270752,624.700623 
	C1079.271362,624.700623 1098.999878,624.700623 1118.669434,624.700623 
	C1118.669434,619.330566 1118.669434,614.268311 1118.669434,608.746460 
	C1104.608154,608.746460 1090.873291,608.746460 1077.214478,608.746460 
	C1077.214478,601.664734 1077.214478,595.052246 1077.214478,587.978271 
	C1089.154785,587.978271 1100.889771,587.978271 1112.724365,587.978271 
	C1112.724365,582.111633 1112.724365,576.715942 1112.724365,571.000000 
	C1103.483765,571.000000 1094.515747,571.000000 1084.565674,571.000000 
M731.380676,617.057007 
	C733.406311,618.395813 735.348999,619.886169 737.471375,621.048340 
	C749.365356,627.560791 762.106750,627.244446 774.710876,624.494507 
	C781.482971,623.016907 787.623901,619.395874 791.572754,612.989990 
	C795.145081,607.194885 794.758423,600.872803 795.128479,594.475403 
	C795.623352,585.922363 788.205261,575.585693 780.002686,573.972412 
	C773.021240,572.599365 765.998779,571.426636 759.038208,569.957947 
	C754.751465,569.053589 750.803650,567.318420 750.047302,562.294861 
	C749.299805,557.329590 751.343872,553.657593 755.947083,551.548401 
	C762.708374,548.450378 769.335754,549.774109 775.838501,552.399963 
	C778.142517,553.330322 780.547852,555.894165 782.431091,555.490784 
	C784.633972,555.018860 786.327576,552.131409 788.222290,550.271606 
	C789.527954,548.990051 791.007202,547.812073 792.002686,546.317322 
	C792.530090,545.525635 792.677368,543.598389 792.157654,543.145142 
	C789.969116,541.236145 787.562256,539.524841 785.057678,538.040833 
	C777.331177,533.462646 768.750488,533.890564 760.218811,533.985229 
	C740.955322,534.199036 729.218384,547.634155 732.134705,567.868469 
	C733.179993,575.120911 737.068726,581.301941 744.383850,583.586243 
	C752.051575,585.980774 760.046326,587.378967 767.950806,588.946777 
	C773.437256,590.034912 776.711914,592.888794 776.998962,597.548035 
	C777.340149,603.085144 775.060547,606.815918 769.278625,608.125305 
	C758.664368,610.529175 748.517700,609.509216 740.270630,602.042114 
	C736.083801,606.249023 732.136780,610.215027 727.683777,614.689453 
	C728.578552,615.370544 729.616089,616.160339 731.380676,617.057007 
M423.495636,556.003357 
	C425.824615,548.871094 428.153595,541.738770 430.680298,534.000977 
	C424.330780,534.000977 419.012848,533.811157 413.726807,534.137756 
	C412.444702,534.216919 410.628510,535.761536 410.155457,537.038757 
	C408.307434,542.028442 406.899384,547.181091 405.328217,552.273254 
	C401.393372,565.026245 397.458801,577.779419 393.279999,591.323669 
	C387.259003,571.809631 381.432068,552.924622 375.647186,534.175781 
	C368.997101,534.175781 362.752228,534.175781 356.348602,534.175781 
	C357.552917,538.088074 358.635315,541.814514 359.844757,545.499146 
	C367.299744,568.210999 374.746429,590.925659 382.272339,613.614014 
	C386.355988,625.925049 386.424194,625.902405 400.700104,624.705322 
	C408.141296,602.073608 415.601624,579.383850 423.495636,556.003357 
M935.738281,550.988831 
	C943.020874,550.988831 950.303528,550.988831 958.031494,550.988831 
	C958.031494,575.836914 958.031494,600.227234 958.031494,624.728882 
	C964.216736,624.728882 969.944336,624.728882 976.122009,624.728882 
	C976.122009,600.071655 976.122009,575.681458 976.122009,550.834106 
	C984.303650,550.834106 992.039429,550.834106 999.656433,550.834106 
	C999.656433,544.966431 999.656433,539.570312 999.656433,534.361877 
	C977.588806,534.361877 955.866272,534.361877 933.627319,534.361877 
	C934.030518,540.134644 934.406555,545.518127 935.738281,550.988831 
M301.000000,579.500000 
	C301.000000,564.424744 301.000000,549.349426 301.000000,534.317261 
	C294.345398,534.317261 288.287079,534.317261 282.295959,534.317261 
	C282.295959,564.663574 282.295959,594.691711 282.295959,624.683105 
	C288.654022,624.683105 294.712311,624.683105 301.000000,624.683105 
	C301.000000,609.744934 301.000000,595.122498 301.000000,579.500000 
M875.000000,587.500000 
	C875.000000,569.761719 875.000000,552.023499 875.000000,534.312744 
	C868.689087,534.312744 862.964539,534.312744 857.290894,534.312744 
	C857.290894,564.654236 857.290894,594.682068 857.290894,624.687622 
	C863.310303,624.687622 869.034790,624.687622 875.000000,624.687622 
	C875.000000,612.417847 875.000000,600.458923 875.000000,587.500000 
M1080.079956,525.872864 
	C1086.008179,528.643738 1091.772095,527.356750 1095.061401,522.430420 
	C1099.040161,516.471375 1102.946167,510.463898 1107.197632,504.000244 
	C1101.252808,504.000244 1096.252686,503.822418 1091.279785,504.113403 
	C1089.868286,504.195984 1087.785767,505.333771 1087.294678,506.519409 
	C1084.768555,512.617126 1082.660645,518.888062 1080.079956,525.872864 
z"/>
<path fill="#FFFFFF" opacity="1.000000" stroke="none" 
	d="
M75.000000,1.000000 
	C232.690750,1.000000 390.381500,1.000000 548.345947,1.379380 
	C541.078613,2.894610 533.537598,4.030458 525.596436,5.108729 
	C512.547913,9.041431 499.761475,12.651301 487.306549,17.174067 
	C480.545837,19.629089 474.349304,23.637873 467.534485,26.979160 
	C445.232483,38.010494 426.885925,53.660141 410.229645,71.396683 
	C406.036804,75.861473 402.647675,81.081032 398.577606,86.091805 
	C397.804840,86.707817 397.273529,87.135872 396.892578,87.670952 
	C385.620087,103.505142 375.983856,120.296707 369.300629,138.549271 
	C363.147095,155.355148 358.299408,172.573914 356.959656,190.587692 
	C356.510437,196.627960 355.321503,202.627502 355.117737,208.667496 
	C354.935913,214.057800 355.646454,219.478210 355.599609,225.074890 
	C354.603699,228.912979 354.215546,232.624756 353.290436,236.197495 
	C351.054932,244.831116 348.568726,253.399841 346.047211,262.297546 
	C345.598206,263.375824 345.285583,264.151306 344.662354,265.101196 
	C343.195038,267.838104 342.038300,270.400574 340.573120,273.104553 
	C339.807281,274.481812 339.349884,275.717560 338.588074,277.074158 
	C337.483856,278.448303 336.684052,279.701630 335.577148,281.098938 
	C334.503906,282.803131 333.737732,284.363373 332.662140,286.075806 
	C330.549622,288.810608 328.746552,291.393188 326.638000,294.097229 
	C324.553223,296.141418 322.773926,298.064148 320.682434,300.109741 
	C316.233948,304.151215 312.097717,308.069794 307.640717,312.111145 
	C304.548065,314.226776 301.776184,316.219604 298.663757,318.254181 
	C295.873779,319.835754 293.424377,321.375610 290.607330,322.967468 
	C272.260864,332.232239 253.417908,337.849457 232.967789,337.032318 
	C228.319351,336.846588 223.652985,337.109924 218.626099,336.978333 
	C216.346298,336.523254 214.413559,336.361847 212.527588,335.973480 
	C188.661865,331.058777 167.121185,321.460297 149.643677,304.049011 
	C143.842224,298.269531 138.567078,291.961731 132.911850,285.576416 
	C128.725128,277.902832 124.182739,270.771606 120.741714,263.143585 
	C114.962601,250.332504 111.037155,236.897568 111.023201,222.669098 
	C110.964561,162.858414 111.097366,103.047310 110.903030,43.237194 
	C110.869850,33.022339 106.734474,24.094503 99.903526,16.292494 
	C93.119469,8.544044 84.491920,4.154705 75.000000,1.000000 
z"/>
<path fill="#FFFFFF" opacity="1.000000" stroke="none" 
	d="
M591.000000,1.000005 
	C688.687561,1.000000 786.375122,1.000000 884.336792,1.372045 
	C880.869568,2.163257 877.051453,2.241755 873.401550,3.065591 
	C862.551758,5.514490 851.768250,8.256628 840.567383,10.934765 
	C826.450012,17.045889 812.723999,23.106401 798.656311,29.208290 
	C797.833130,29.703974 797.417480,30.270927 796.860718,30.596415 
	C772.880615,44.614918 752.458069,62.618309 735.581299,85.094757 
	C734.535583,86.307449 733.835327,87.401665 733.061340,88.441025 
	C721.105164,104.498009 711.867126,122.043320 705.015137,140.799911 
	C695.714355,166.259857 691.593384,192.601242 691.860352,219.725952 
	C691.924011,226.192139 690.998962,232.876633 689.257263,239.105179 
	C686.339783,249.538223 682.400208,259.685425 678.583252,270.121948 
	C673.187012,278.021606 668.757324,286.302826 662.862305,293.359955 
	C652.825745,305.374969 640.685486,315.170654 626.598267,322.938538 
	C614.917847,326.958954 603.822021,331.822418 592.227234,334.613342 
	C581.462280,337.204559 570.193665,338.326050 558.556030,336.098328 
	C545.138062,335.407623 532.972229,331.495605 521.132080,326.540802 
	C508.118744,321.095001 496.850922,312.832764 485.918610,303.592407 
	C482.578369,299.748505 478.955048,296.499115 476.250885,292.610535 
	C470.319672,284.081482 463.927399,275.677429 459.432404,266.394775 
	C453.788971,254.740417 450.165833,242.258835 448.802795,229.116928 
	C447.396698,215.559738 447.692596,202.234146 450.519287,188.927979 
	C453.976959,172.651794 461.203430,158.028458 470.366760,143.963776 
	C472.738708,141.101532 474.618439,138.225220 476.877777,135.686813 
	C490.855347,119.982780 507.394989,107.852089 527.432617,100.069633 
	C533.124451,98.567429 538.393188,96.997643 543.725037,95.683792 
	C560.073364,91.655334 576.518982,92.076614 593.396973,94.907066 
	C599.253723,96.522202 604.677307,98.188591 610.172729,99.568909 
	C615.350830,100.869522 620.600464,102.797981 625.825928,102.821457 
	C639.931458,102.884834 651.837036,97.726059 661.639771,87.023544 
	C679.365479,67.670746 676.231445,34.290646 653.196289,18.565023 
	C643.943542,12.248343 633.278320,9.804694 622.782593,7.210186 
	C613.033508,4.800257 602.937988,3.791970 592.681702,2.094199 
	C591.912292,1.681233 591.456116,1.340621 591.000000,1.000005 
z"/>
<path fill="#4F949C" opacity="1.000000" stroke="none" 
	d="
M1147.000000,379.583313 
	C1143.661621,387.674225 1141.139526,395.848022 1136.812988,402.917450 
	C1128.126465,417.111237 1114.538574,424.758484 1098.449829,427.923157 
	C1081.973999,431.164062 1066.762817,427.341766 1053.162109,417.938477 
	C1040.882935,409.448853 1032.919434,397.709869 1030.290039,382.258362 
	C1031.070679,379.483887 1031.940430,377.304565 1031.941895,375.124664 
	C1032.020630,264.043335 1032.025269,152.961975 1032.390137,41.936058 
	C1047.331177,52.141174 1060.141846,64.302200 1071.310913,78.008026 
	C1085.419312,95.320602 1096.952271,114.249878 1105.120850,135.206085 
	C1114.127563,158.311951 1119.747314,182.086548 1119.919678,206.899490 
	C1120.191528,246.030655 1119.664551,285.169769 1120.221558,324.294891 
	C1120.361328,334.117706 1122.216919,344.272949 1125.314941,353.600891 
	C1128.712769,363.830811 1136.633423,371.036133 1147.000000,375.000000 
	C1147.000000,376.388885 1147.000000,377.777802 1147.000000,379.583313 
z"/>
<path fill="#056E82" opacity="1.000000" stroke="none" 
	d="
M74.539368,1.000000 
	C84.491920,4.154705 93.119469,8.544044 99.903526,16.292494 
	C106.734474,24.094503 110.869850,33.022339 110.903030,43.237194 
	C111.097366,103.047310 110.964561,162.858414 111.023201,222.669098 
	C111.037155,236.897568 114.962601,250.332504 120.741714,263.143585 
	C124.182739,270.771606 128.725128,277.902832 132.742264,285.967010 
	C132.474762,288.793549 132.033401,290.910126 132.030304,293.027374 
	C131.976379,330.058563 131.976074,367.089813 131.964142,404.121033 
	C123.031235,398.634613 113.526031,393.882568 105.308235,387.478485 
	C94.704819,379.215302 84.910835,369.859528 75.206734,360.518738 
	C70.307014,355.802490 66.373116,350.082855 62.001350,344.035400 
	C62.333454,340.134125 62.956673,337.014496 62.958080,333.894623 
	C63.008156,222.929764 63.000000,111.964882 63.000000,1.000000 
	C66.692909,1.000000 70.385818,1.000000 74.539368,1.000000 
z"/>
<path fill="#FFFFFF" opacity="1.000000" stroke="none" 
	d="
M1147.000000,374.531342 
	C1136.633423,371.036133 1128.712769,363.830811 1125.314941,353.600891 
	C1122.216919,344.272949 1120.361328,334.117706 1120.221558,324.294891 
	C1119.664551,285.169769 1120.191528,246.030655 1119.919678,206.899490 
	C1119.747314,182.086548 1114.127563,158.311951 1105.120850,135.206085 
	C1096.952271,114.249878 1085.419312,95.320602 1071.310913,78.008026 
	C1060.141846,64.302200 1047.331177,52.141174 1032.245605,41.630634 
	C1030.874146,40.523216 1030.060059,39.687458 1029.115479,39.043282 
	C1008.754883,25.157566 986.895569,14.473248 962.602905,8.087265 
	C956.345581,6.672302 950.504395,5.211292 944.606140,4.036770 
	C938.767395,2.874085 932.871094,2.000431 927.000000,1.000004 
	C1000.279297,1.000000 1073.558594,1.000000 1147.000000,1.000000 
	C1147.000000,125.354179 1147.000000,249.708435 1147.000000,374.531342 
z"/>
<path fill="#016D81" opacity="1.000000" stroke="none" 
	d="
M62.555836,1.000000 
	C63.000000,111.964882 63.008156,222.929764 62.958080,333.894623 
	C62.956673,337.014496 62.333454,340.134125 61.979401,343.684326 
	C57.639168,338.070679 52.882633,332.287933 49.082924,325.933044 
	C38.066349,307.508270 29.097752,288.072723 24.659561,266.994049 
	C21.949032,254.120743 19.429131,240.932678 19.237583,227.850632 
	C18.358698,167.825287 18.063520,107.787216 18.129164,47.754330 
	C18.155420,23.740808 33.395016,6.284612 54.859650,1.362799 
	C57.370556,1.000000 59.741116,1.000000 62.555836,1.000000 
z"/>
<path fill="#58595A" opacity="1.000000" stroke="none" 
	d="
M750.468628,1111.000000 
	C742.778076,1108.019531 734.971558,1105.966187 728.459473,1101.859985 
	C716.044678,1094.031982 718.311768,1095.453857 726.603333,1086.902954 
	C730.777100,1082.598633 734.986938,1078.329346 739.346008,1073.875122 
	C750.222717,1083.861816 762.616882,1087.714966 775.772522,1080.802002 
	C787.091064,1074.854370 787.863464,1063.337402 786.757263,1051.294312 
	C783.832764,1053.022583 781.177124,1055.045898 778.194824,1056.279419 
	C761.369934,1063.238037 745.114624,1062.085449 730.606323,1050.835449 
	C722.539978,1044.580566 718.904419,1035.011719 718.161438,1025.056396 
	C717.175354,1011.844604 716.771912,998.530762 717.166443,985.291992 
	C717.523071,973.325623 719.798889,961.765076 728.735840,952.394470 
	C735.063660,945.759521 742.932556,942.355957 751.343567,941.296570 
	C761.043274,940.074829 771.143799,939.992615 780.075928,945.574707 
	C782.543457,947.116760 784.888977,948.854004 787.786438,950.841980 
	C787.919189,947.845703 788.037781,945.168701 788.166748,942.257446 
	C798.404785,942.257446 808.473145,942.257446 819.000000,942.257446 
	C819.000000,944.231995 819.000000,946.019470 819.000000,947.806946 
	C819.000000,986.636414 819.149902,1025.466797 818.935608,1064.295044 
	C818.831299,1083.197876 806.366089,1100.967896 788.122864,1107.375854 
	C784.614929,1108.608032 780.923889,1109.318848 777.158691,1110.635010 
	C768.312439,1111.000000 759.624817,1111.000000 750.468628,1111.000000 
M784.690430,981.206787 
	C780.112549,971.561401 774.121338,969.448364 765.926819,970.123596 
	C758.110535,970.767761 752.680908,975.096680 750.635620,984.737854 
	C748.318115,995.662415 748.384949,1006.451355 750.898193,1017.364990 
	C752.578003,1024.659180 756.785950,1029.367554 763.854553,1030.763672 
	C771.022156,1032.179443 778.343262,1030.813843 782.073792,1024.031128 
	C784.858398,1018.968323 786.514160,1012.735535 786.743042,1006.947510 
	C787.070801,998.657898 785.638977,990.298645 784.690430,981.206787 
z"/>
<path fill="#58595A" opacity="1.000000" stroke="none" 
	d="
M0.999999,1062.399902 
	C5.156020,1051.014160 9.410305,1040.064209 13.449553,1029.035522 
	C25.150122,997.088379 36.776119,965.113770 48.405872,933.140625 
	C52.338337,922.329224 56.109463,911.457764 60.202972,900.708374 
	C60.666874,899.490173 62.726555,898.161316 64.083900,898.119934 
	C72.069206,897.876770 80.065674,898.000366 88.559578,898.000366 
	C108.890564,953.671509 129.248367,1009.416077 149.911087,1065.995605 
	C137.889069,1065.995605 126.948608,1066.077271 116.013947,1065.863159 
	C114.975746,1065.842896 113.477455,1064.149170 113.035767,1062.927612 
	C110.224243,1055.150879 107.583038,1047.310059 105.038452,1039.440918 
	C104.305626,1037.174683 103.503578,1035.905762 100.707726,1035.927856 
	C82.726059,1036.069580 64.742737,1036.000366 46.511543,1036.000366 
	C43.177544,1045.994507 39.869080,1055.912231 36.503864,1066.000000 
	C24.901545,1066.000000 13.419430,1066.000000 1.468657,1066.000000 
	C1.000000,1064.933350 1.000000,1063.866577 0.999999,1062.399902 
M92.534126,1001.035095 
	C87.071579,984.794373 81.609039,968.553650 75.716103,951.033325 
	C68.904388,970.644775 62.636742,988.689758 56.365383,1006.745483 
	C68.965958,1006.745483 81.377769,1006.745483 94.084641,1006.745483 
	C93.654724,1004.879150 93.295807,1003.321106 92.534126,1001.035095 
z"/>
<path fill="#448E98" opacity="1.000000" stroke="none" 
	d="
M926.531372,1.000004 
	C932.871094,2.000431 938.767395,2.874085 944.606140,4.036770 
	C950.504395,5.211292 956.345581,6.672302 962.592651,8.498980 
	C962.649048,11.770487 962.049744,14.550093 962.042297,17.331282 
	C961.962952,46.928574 961.977600,76.526115 961.966431,106.123581 
	C950.448364,102.323303 939.150330,97.435600 927.346558,95.047318 
	C916.830139,92.919502 905.754150,93.557320 894.462158,92.446640 
	C893.999512,61.612469 893.999756,31.306234 894.000000,1.000000 
	C904.687561,1.000000 915.375122,1.000000 926.531372,1.000004 
z"/>
<path fill="#297F8E" opacity="1.000000" stroke="none" 
	d="
M592.995178,94.833389 
	C576.518982,92.076614 560.073364,91.655334 543.725037,95.683792 
	C538.393188,96.997643 533.124451,98.567429 527.374146,99.646339 
	C526.614319,96.992035 526.044617,94.712105 526.039795,92.430977 
	C525.978333,63.342850 525.997803,34.254559 525.996643,5.166307 
	C533.537598,4.030458 541.078613,2.894610 548.809814,1.379380 
	C562.687561,1.000000 576.375122,1.000000 590.531372,1.000005 
	C591.456116,1.340621 591.912292,1.681233 592.683289,2.551796 
	C592.997192,33.665630 592.996216,64.249512 592.995178,94.833389 
z"/>
<path fill="#408C96" opacity="1.000000" stroke="none" 
	d="
M893.550049,1.000000 
	C893.999756,31.306234 893.999512,61.612469 893.998169,92.376099 
	C886.047485,94.568176 877.812134,95.508385 870.220825,98.238945 
	C860.765869,101.639839 851.842163,106.517944 842.343872,110.338287 
	C841.999146,79.681839 842.026733,49.445187 841.954712,19.208778 
	C841.948120,16.433130 841.305847,13.658998 840.958801,10.884157 
	C851.768250,8.256628 862.551758,5.514490 873.401550,3.065591 
	C877.051453,2.241755 880.869568,2.163257 884.805420,1.372045 
	C887.700012,1.000000 890.400024,1.000000 893.550049,1.000000 
z"/>
<path fill="#1F7B8B" opacity="1.000000" stroke="none" 
	d="
M470.050018,144.105927 
	C461.203430,158.028458 453.976959,172.651794 450.519287,188.927979 
	C447.692596,202.234146 447.396698,215.559738 448.802795,229.116928 
	C450.165833,242.258835 453.788971,254.740417 459.432404,266.394775 
	C463.927399,275.677429 470.319672,284.081482 476.250885,292.610535 
	C478.955048,296.499115 482.578369,299.748505 485.748474,303.982788 
	C485.474731,306.793732 485.033905,308.909454 485.030457,311.025879 
	C484.975647,344.391205 484.977020,377.756683 484.965546,411.122101 
	C469.597473,405.731476 456.073181,396.984009 443.101776,387.440765 
	C434.803589,381.335632 426.833069,374.686310 419.333984,367.624329 
	C413.005371,361.664581 407.567291,354.759155 401.399780,347.807495 
	C401.008301,346.580597 400.952087,345.818481 401.195831,344.810181 
	C401.330536,340.967865 401.022278,337.371857 401.021027,333.775726 
	C400.993591,253.778107 401.019958,173.780457 400.911255,93.782990 
	C400.907684,91.172318 399.592773,88.563438 398.889160,85.953735 
	C402.647675,81.081032 406.036804,75.861473 410.229645,71.396683 
	C426.885925,53.660141 445.232483,38.010494 467.848450,27.265059 
	C468.684143,29.320288 468.978424,31.122862 468.979828,32.925663 
	C469.007080,67.720161 468.980377,102.514732 469.045013,137.309143 
	C469.049225,139.575348 469.700012,141.840363 470.050018,144.105927 
z"/>
<path fill="#58595A" opacity="1.000000" stroke="none" 
	d="
M697.758118,724.248779 
	C706.811646,731.153687 712.422119,740.230530 712.775330,750.918701 
	C713.741089,780.146240 713.626831,809.409607 713.923584,838.658936 
	C713.926514,838.949036 713.701111,839.241516 713.488464,839.762817 
	C703.295349,839.762817 693.022522,839.762817 682.000000,839.762817 
	C682.000000,838.100342 682.000000,836.352600 682.000000,834.604797 
	C682.000000,814.111145 682.060852,793.617188 681.953247,773.124084 
	C681.929138,768.532410 681.709595,763.871643 680.884949,759.369934 
	C679.480713,751.703735 672.049744,744.013611 660.979126,744.890747 
	C652.785583,745.539917 645.110229,751.676819 644.034729,759.860352 
	C643.479736,764.083496 643.063354,768.358887 643.044983,772.612671 
	C642.948730,794.901001 643.000000,817.190002 643.000000,839.738281 
	C632.224548,839.738281 621.834412,839.738281 611.000000,839.738281 
	C611.000000,837.752014 611.000000,835.963196 611.000000,834.174377 
	C611.000000,811.181519 611.338379,788.181519 610.858459,765.198669 
	C610.615112,753.548584 606.433167,748.213684 596.938965,745.430542 
	C585.268494,742.009338 573.042603,750.944580 573.015503,763.089417 
	C572.962708,786.748657 573.000000,810.408020 573.000000,834.067383 
	C573.000000,835.869202 573.000000,837.671082 573.000000,839.729126 
	C561.910217,839.729126 551.186829,839.729126 540.231079,839.729126 
	C540.231079,798.954468 540.231079,758.355286 540.231079,717.377808 
	C550.533508,717.377808 560.925476,717.377808 571.786133,717.377808 
	C571.786133,719.929749 571.786133,722.645203 571.786133,725.605286 
	C600.127014,710.509705 613.713501,711.491394 633.527100,729.844421 
	C642.543518,721.171448 652.967468,716.294739 665.830566,715.757751 
	C677.460632,715.272217 688.056885,716.923279 697.758118,724.248779 
z"/>
<path fill="#388894" opacity="1.000000" stroke="none" 
	d="
M735.892456,84.950760 
	C752.458069,62.618309 772.880615,44.614918 796.860718,30.596415 
	C797.417480,30.270927 797.833130,29.703974 798.657166,29.665798 
	C798.999817,68.871689 798.974487,107.661507 799.061646,146.451065 
	C799.067078,148.847321 799.959717,151.241592 800.439575,153.636780 
	C796.181458,164.327927 791.054260,174.773071 787.936401,185.787003 
	C785.382202,194.809845 784.268311,204.500259 784.171448,213.911758 
	C783.836365,246.481827 777.399353,277.493835 763.080017,306.849854 
	C756.408325,320.527283 749.050537,333.717865 738.667969,345.452332 
	C737.789978,343.495972 737.051025,341.448303 737.049561,339.400116 
	C736.991516,256.626190 737.007935,173.852219 736.953674,91.078293 
	C736.952332,89.035545 736.261597,86.993256 735.892456,84.950760 
z"/>
<path fill="#348592" opacity="1.000000" stroke="none" 
	d="
M735.581299,85.094757 
	C736.261597,86.993256 736.952332,89.035545 736.953674,91.078293 
	C737.007935,173.852219 736.991516,256.626190 737.049561,339.400116 
	C737.051025,341.448303 737.789978,343.495972 738.509155,345.756927 
	C726.516418,362.818420 711.305359,376.684906 694.454895,388.825104 
	C690.391113,391.752930 686.039612,394.281433 681.147217,396.737549 
	C680.315918,394.510468 680.021606,392.539459 680.020203,390.568268 
	C679.992981,352.239807 680.015625,313.911285 679.952820,275.582947 
	C679.949768,273.705688 679.260498,271.829590 678.890808,269.952942 
	C682.400208,259.685425 686.339783,249.538223 689.257263,239.105179 
	C690.998962,232.876633 691.924011,226.192139 691.860352,219.725952 
	C691.593384,192.601242 695.714355,166.259857 705.015137,140.799911 
	C711.867126,122.043320 721.105164,104.498009 733.061340,88.441025 
	C733.835327,87.401665 734.535583,86.307449 735.581299,85.094757 
z"/>
<path fill="#58595A" opacity="1.000000" stroke="none" 
	d="
M63.818520,704.645508 
	C54.187798,709.138672 49.681038,717.037781 49.158630,726.634705 
	C48.257450,743.189880 47.720570,759.817261 48.233318,776.377136 
	C48.534451,786.102539 49.002865,796.346069 57.323090,803.912170 
	C69.589996,815.067322 91.239128,812.762573 99.043404,796.771973 
	C99.471275,795.895325 100.197578,795.074951 100.335968,794.160400 
	C101.454697,786.767578 106.455902,786.572449 112.451149,786.889832 
	C120.745132,787.328796 129.079773,787.000000 137.781708,787.000000 
	C134.544189,808.917480 124.570389,826.087952 104.431129,835.626770 
	C93.197060,840.947754 81.103714,842.752991 68.242233,841.261169 
	C52.885315,839.479980 40.024696,833.663147 29.346277,822.792725 
	C20.836924,814.130371 15.900568,803.565552 15.089079,791.490723 
	C14.048021,776.000000 12.765963,760.435120 13.278162,744.958191 
	C13.705812,732.036072 13.308183,718.838684 18.773033,706.347290 
	C26.422276,688.862976 39.646328,678.116638 57.495586,673.154663 
	C73.061111,668.827576 88.810089,669.981201 103.625984,676.418823 
	C119.830597,683.459839 129.995575,696.257141 134.941269,713.164062 
	C136.035843,716.905823 136.780792,720.749878 137.794113,724.996887 
	C126.786713,724.996887 116.029327,725.139343 105.286049,724.814697 
	C103.959282,724.774658 102.100395,722.462280 101.521164,720.835083 
	C98.114952,711.266602 92.128853,704.538696 81.901802,702.461609 
	C75.842957,701.231079 69.822792,701.716614 63.818520,704.645508 
z"/>
<path fill="#478F9A" opacity="1.000000" stroke="none" 
	d="
M952.283691,177.805542 
	C960.138733,189.660355 964.055786,202.263809 963.000549,216.231720 
	C962.155029,227.424835 958.454163,237.626434 951.805664,246.618637 
	C943.074402,258.427979 931.175476,265.924286 916.891846,268.395081 
	C899.664307,271.375183 883.562805,268.071014 869.317078,256.950134 
	C857.094177,247.408386 850.351013,234.660507 848.312256,219.946960 
	C846.103699,204.007843 849.910400,189.016800 860.346252,176.080185 
	C869.013245,165.336411 879.853943,158.671356 893.404724,155.761810 
	C910.835754,152.019150 926.480652,155.581024 940.505981,166.178589 
	C944.773376,169.403091 948.211182,173.725586 952.283691,177.805542 
z"/>
<path fill="#49919A" opacity="1.000000" stroke="none" 
	d="
M962.137268,106.426697 
	C961.977600,76.526115 961.962952,46.928574 962.042297,17.331282 
	C962.049744,14.550093 962.649048,11.770487 962.983765,8.578431 
	C986.895569,14.473248 1008.754883,25.157566 1029.115479,39.043282 
	C1030.060059,39.687458 1030.874146,40.523216 1031.893433,41.575188 
	C1032.025269,152.961975 1032.020630,264.043335 1031.941895,375.124664 
	C1031.940430,377.304565 1031.070679,379.483887 1030.249023,381.855804 
	C1029.263184,378.247314 1028.095947,374.447815 1028.086792,370.645538 
	C1027.964966,320.056732 1027.679443,269.464478 1028.154663,218.879852 
	C1028.364990,196.493027 1023.801392,175.613892 1012.997375,156.117767 
	C1001.073914,134.601578 984.301514,117.961082 962.137268,106.426697 
z"/>
<path fill="#58595A" opacity="1.000000" stroke="none" 
	d="
M353.998535,789.000000 
	C334.199646,789.000000 314.900543,789.000000 295.657837,789.000000 
	C294.092072,797.437561 298.855774,807.005920 307.067627,810.945068 
	C317.976410,816.177917 335.046661,816.235840 347.399994,802.182007 
	C353.275421,807.636108 359.082275,813.163757 365.055206,818.505859 
	C367.557800,820.744202 367.378326,822.377625 364.989136,824.558472 
	C354.855560,833.808899 343.459106,839.669983 329.456696,841.233643 
	C318.258759,842.484009 307.483093,841.618164 297.006531,838.369080 
	C279.730743,833.011597 269.762054,820.404724 265.701111,803.201111 
	C260.846466,782.635315 260.716461,761.986389 270.280548,742.734192 
	C278.450928,726.287476 292.319092,717.315125 311.180634,715.833862 
	C323.994812,714.827576 335.975372,716.751099 346.675842,723.471252 
	C359.202789,731.338440 366.395020,743.455750 368.840912,757.875061 
	C370.537079,767.874451 370.798553,778.117249 371.767731,789.000000 
	C365.350189,789.000000 359.924255,789.000000 353.998535,789.000000 
M297.409760,755.091858 
	C296.420868,758.529297 295.432007,761.966736 294.359741,765.693970 
	C310.000183,765.693970 324.390564,765.693970 338.791534,765.693970 
	C337.175995,754.371887 333.056763,744.963867 320.720001,743.143127 
	C309.306702,741.458679 301.251099,746.292297 297.409760,755.091858 
z"/>
<path fill="#58595A" opacity="1.000000" stroke="none" 
	d="
M1030.821289,1055.305908 
	C1018.699646,1043.864990 1014.374573,1029.651733 1012.831116,1013.834900 
	C1011.518005,1000.377808 1012.698059,987.435669 1017.010559,974.753296 
	C1023.886108,954.533447 1042.154053,940.988281 1063.812256,940.887634 
	C1075.911011,940.831421 1087.202515,942.639893 1097.309814,949.701233 
	C1109.682007,958.344971 1116.646729,970.476135 1118.825928,985.056519 
	C1120.210693,994.321838 1119.957886,1003.831970 1120.470581,1013.840698 
	C1094.640015,1013.840698 1069.437378,1013.840698 1042.540039,1013.840698 
	C1045.373291,1020.141846 1047.130127,1025.706909 1050.157959,1030.462646 
	C1058.269287,1043.202759 1083.978882,1041.368164 1093.748779,1030.636963 
	C1096.608154,1027.496216 1098.450562,1027.626099 1101.289551,1030.656372 
	C1106.397461,1036.108276 1111.922119,1041.169800 1117.625854,1046.739380 
	C1108.125732,1056.560181 1097.577637,1063.658325 1084.477295,1065.880127 
	C1071.081543,1068.152344 1057.617432,1067.956787 1044.749634,1062.917603 
	C1039.965454,1061.044067 1035.620239,1058.049927 1030.821289,1055.305908 
M1085.953003,980.867615 
	C1080.361694,969.173462 1071.608154,966.775269 1062.520508,968.232239 
	C1054.059082,969.588745 1045.864746,974.826050 1044.151489,991.716492 
	C1058.679443,991.716492 1073.179688,991.716492 1088.625366,991.716492 
	C1087.680664,988.087769 1086.844971,984.877136 1085.953003,980.867615 
z"/>
<path fill="#58595A" opacity="1.000000" stroke="none" 
	d="
M557.759888,1049.738647 
	C546.113892,1061.106323 532.506714,1066.765869 516.541931,1067.048584 
	C506.444519,1067.227173 496.609100,1066.240234 487.119080,1062.594727 
	C472.539490,1056.994141 463.658478,1045.842773 459.448242,1031.523193 
	C454.174744,1013.587463 453.896912,995.094421 459.528625,977.138306 
	C466.516388,954.858643 483.358337,941.227051 508.386780,940.909790 
	C523.864990,940.713562 537.671875,944.536194 548.379333,956.028870 
	C557.429260,965.742310 562.153809,977.611267 562.999878,990.934143 
	C563.470764,998.348999 563.940552,1005.763977 564.444702,1013.713379 
	C538.829590,1013.713379 513.772461,1013.713379 488.838348,1013.713379 
	C486.488403,1023.505493 492.961090,1034.752441 503.878479,1037.705444 
	C515.631592,1040.884399 527.456238,1040.347900 536.713806,1030.657959 
	C539.586304,1027.651245 541.421265,1027.485596 544.263672,1030.634033 
	C548.724304,1035.574829 553.510193,1040.241211 558.386414,1044.778809 
	C560.595154,1046.834106 559.792419,1048.051392 557.759888,1049.738647 
M524.490417,973.993469 
	C517.573242,966.544983 507.237091,966.856812 500.111542,969.987793 
	C492.440155,973.358643 486.524078,984.911621 488.485626,991.606201 
	C502.946045,991.606201 517.406494,991.606201 533.684082,991.606201 
	C530.437073,985.208557 527.722351,979.859741 524.490417,973.993469 
z"/>
<path fill="#58595A" opacity="1.000000" stroke="none" 
	d="
M185.246323,1044.611816 
	C183.698517,1038.294800 181.282990,1032.328857 181.184402,1026.324829 
	C180.755112,1000.182007 181.000000,974.028015 181.000000,947.878113 
	C181.000000,946.080750 181.000000,944.283386 181.000000,942.252258 
	C191.670929,942.252258 201.942032,942.252258 213.000000,942.252258 
	C213.000000,943.856445 213.000000,945.598450 213.000000,947.340454 
	C213.000000,970.492310 212.850174,993.645630 213.082123,1016.795166 
	C213.162201,1024.787109 215.670944,1031.916138 223.594635,1035.866333 
	C236.663589,1042.381470 251.486252,1031.677002 251.175949,1018.634033 
	C250.574280,993.342285 251.000000,968.026062 251.000000,942.360229 
	C261.902161,942.360229 272.625275,942.360229 283.675812,942.360229 
	C283.675812,983.300171 283.675812,1024.340820 283.675812,1065.691162 
	C273.322174,1065.691162 262.931458,1065.691162 252.139374,1065.691162 
	C252.139374,1062.896973 252.139374,1060.141602 252.139374,1056.085938 
	C241.001297,1065.813354 228.629822,1068.408081 215.435074,1066.640747 
	C201.743866,1064.806641 191.597290,1057.491455 185.246323,1044.611816 
z"/>
<path fill="#58595A" opacity="1.000000" stroke="none" 
	d="
M942.601440,724.755310 
	C949.215881,721.709595 955.268372,717.927673 961.856812,716.247559 
	C969.746399,714.235657 978.002319,715.186584 985.820435,718.032227 
	C998.467651,722.635376 1006.263733,731.920410 1009.819824,744.514832 
	C1011.440979,750.256409 1011.851013,756.483032 1011.907715,762.498108 
	C1012.132385,786.312805 1012.000000,810.130737 1012.000000,833.947510 
	C1012.000000,835.758240 1012.000000,837.568909 1012.000000,839.685974 
	C1001.002502,839.685974 990.281311,839.685974 979.000000,839.685974 
	C979.000000,837.883606 979.000000,836.110474 979.000000,834.337402 
	C979.000000,810.520630 979.004883,786.703857 978.997437,762.887085 
	C978.994629,753.851074 971.752869,745.548340 963.427795,745.001648 
	C951.490784,744.217651 943.535889,749.770386 942.028748,760.139221 
	C941.464294,764.023010 941.060425,767.968140 941.044495,771.887207 
	C940.952881,794.357605 941.000000,816.828552 941.000000,839.649353 
	C930.411804,839.649353 920.022583,839.649353 909.315063,839.649353 
	C909.315063,799.016174 909.315063,758.310242 909.315063,717.301758 
	C919.360168,717.301758 929.418823,717.301758 940.007324,717.301758 
	C940.007324,719.632935 939.918579,721.913269 940.108215,724.170166 
	C940.134888,724.488586 941.520325,724.692810 942.601440,724.755310 
z"/>
<path fill="#58595A" opacity="1.000000" stroke="none" 
	d="
M971.000000,1040.000000 
	C971.000000,1048.804077 971.000000,1057.108154 971.000000,1065.704834 
	C960.292542,1065.704834 949.900696,1065.704834 939.000000,1065.704834 
	C939.000000,1063.824707 939.000000,1062.043701 939.000000,1060.262695 
	C939.000000,1037.598877 939.163391,1014.933167 938.894653,992.272583 
	C938.819763,985.953613 937.927856,979.556946 932.469727,974.919556 
	C926.382996,969.747925 919.561401,968.629761 912.332642,971.359375 
	C905.508850,973.936035 901.334473,979.256897 901.081421,986.605957 
	C900.487488,1003.852173 900.276123,1021.112610 900.023132,1038.369019 
	C899.891479,1047.350098 900.000000,1056.334717 900.000000,1065.658203 
	C889.388977,1065.658203 878.995972,1065.658203 868.299805,1065.658203 
	C868.299805,1024.635620 868.299805,983.580200 868.299805,942.262085 
	C878.783203,942.262085 889.182068,942.262085 899.844604,942.262085 
	C899.844604,945.059937 899.844604,947.683472 899.844604,949.779785 
	C906.550232,947.035950 912.979431,943.139343 919.903076,941.801270 
	C943.958984,937.152222 966.339844,948.521973 969.805359,975.259338 
	C971.352051,987.191956 970.766663,999.411804 970.968872,1011.504333 
	C971.124878,1020.833801 971.000000,1030.167969 971.000000,1040.000000 
z"/>
<path fill="#0B7284" opacity="1.000000" stroke="none" 
	d="
M132.123474,404.437805 
	C131.976074,367.089813 131.976379,330.058563 132.030304,293.027374 
	C132.033401,290.910126 132.474762,288.793549 132.881744,286.286072 
	C138.567078,291.961731 143.842224,298.269531 149.643677,304.049011 
	C167.121185,321.460297 188.661865,331.058777 212.527588,335.973480 
	C214.413559,336.361847 216.346298,336.523254 218.627716,337.436096 
	C218.997070,368.332550 218.996002,398.583008 218.994934,428.833435 
	C208.050980,427.418488 197.021103,426.472321 186.182053,424.485168 
	C167.141678,420.994354 149.394119,413.671753 132.123474,404.437805 
z"/>
<path fill="#58595A" opacity="1.000000" stroke="none" 
	d="
M803.954956,716.000000 
	C818.129883,714.358154 830.899292,716.832520 842.400879,724.791931 
	C854.357727,733.066467 860.426941,744.904236 861.865173,758.962891 
	C862.889709,768.976929 863.268982,779.143188 862.859131,789.197632 
	C862.241394,804.350220 858.640015,818.496399 846.437805,829.189148 
	C839.211975,835.521240 830.952637,839.252014 821.708557,840.916443 
	C808.992981,843.206116 796.666931,841.686035 784.998596,835.984680 
	C770.720886,829.008240 762.519165,817.286438 760.146912,801.855896 
	C758.703003,792.464111 757.823975,782.821533 758.207764,773.353027 
	C758.719238,760.734924 759.392090,747.822632 767.046936,736.833923 
	C775.881836,724.151001 788.061523,717.189026 803.954956,716.000000 
M827.101379,802.466003 
	C827.734680,800.985962 828.599182,799.560608 828.964783,798.017151 
	C831.770020,786.171875 831.657959,774.159546 829.824890,762.268860 
	C828.725647,755.137939 825.169495,748.808228 817.868835,746.089722 
	C805.868774,741.621338 794.224060,747.601013 792.286987,760.350037 
	C790.684570,770.895996 790.798340,781.813660 791.290100,792.514404 
	C791.498718,797.054626 794.068481,801.792236 796.524414,805.861145 
	C802.009155,814.948303 821.706421,814.791016 827.101379,802.466003 
z"/>
<path fill="#267E8D" opacity="1.000000" stroke="none" 
	d="
M485.138367,411.440735 
	C484.977020,377.756683 484.975647,344.391205 485.030457,311.025879 
	C485.033905,308.909454 485.474731,306.793732 485.882263,304.287354 
	C496.850922,312.832764 508.118744,321.095001 521.132080,326.540802 
	C532.972229,331.495605 545.138062,335.407623 558.557678,336.555969 
	C558.996887,367.665680 558.995789,398.249542 558.994690,428.833374 
	C533.505432,427.147308 508.917236,421.572601 485.138367,411.440735 
z"/>
<path fill="#58595A" opacity="1.000000" stroke="none" 
	d="
M411.035187,999.100891 
	C403.317078,1020.663025 395.683685,1041.844238 387.834473,1062.945068 
	C387.336945,1064.282715 385.193146,1065.805542 383.759552,1065.863403 
	C376.450409,1066.158325 369.122955,1065.999512 361.456635,1065.999512 
	C346.299286,1024.866821 331.149841,983.755493 315.764801,942.004883 
	C326.836151,942.004883 337.421997,941.902039 347.999146,942.158508 
	C349.098114,942.185181 350.677856,944.166443 351.137085,945.540649 
	C358.533264,967.673584 365.782959,989.855408 373.076172,1012.022766 
	C373.174500,1012.321655 373.404968,1012.577087 374.123962,1013.751587 
	C376.218903,1007.637817 378.152832,1002.155273 379.978119,996.636902 
	C385.626801,979.559326 391.177887,962.448914 396.961700,945.417480 
	C397.435455,944.022461 399.360016,942.184631 400.651947,942.151062 
	C410.960358,941.883423 421.278778,942.001648 432.212006,942.001648 
	C425.059875,961.182983 418.065125,979.942261 411.035187,999.100891 
z"/>
<path fill="#127486" opacity="1.000000" stroke="none" 
	d="
M219.427689,428.908325 
	C218.996002,398.583008 218.997070,368.332550 218.996490,337.624329 
	C223.652985,337.109924 228.319351,336.846588 232.967789,337.032318 
	C253.417908,337.849457 272.260864,332.232239 290.658600,323.370911 
	C291.156281,326.298523 291.439789,328.888947 291.261230,331.447174 
	C291.044434,334.553711 290.071167,337.631439 290.058075,340.724335 
	C289.953888,365.316986 289.972046,389.910339 290.043488,414.503204 
	C290.050568,416.947449 290.663605,419.389893 290.995392,421.833191 
	C278.925140,424.208771 266.944458,427.456635 254.758774,428.707581 
	C243.237976,429.890289 231.501862,428.975464 219.427689,428.908325 
z"/>
<path fill="#2C818F" opacity="1.000000" stroke="none" 
	d="
M559.458618,428.906494 
	C558.995789,398.249542 558.996887,367.665680 558.996338,336.624207 
	C570.193665,338.326050 581.462280,337.204559 592.227234,334.613342 
	C603.822021,331.822418 614.917847,326.958954 626.608765,323.415466 
	C626.989380,356.165283 626.992676,388.499420 626.995911,420.833496 
	C620.084839,422.552338 613.258484,425.111237 606.245422,425.818115 
	C590.854614,427.369385 575.369324,427.983124 559.458618,428.906494 
z"/>
<path fill="#58595A" opacity="1.000000" stroke="none" 
	d="
M1117.549561,720.462158 
	C1117.883423,728.625854 1117.883423,736.447327 1117.883423,744.765991 
	C1110.779663,744.765991 1103.707764,744.765991 1096.000000,744.765991 
	C1096.000000,748.170532 1096.000000,751.105408 1096.000000,754.040222 
	C1096.000000,768.539185 1095.984131,783.038147 1096.004883,797.537109 
	C1096.022949,810.250854 1098.856934,813.351624 1111.514771,813.007507 
	C1113.483887,812.953979 1115.455688,813.000000 1117.711426,813.000000 
	C1117.711426,822.050964 1117.711426,830.777527 1117.711426,840.898132 
	C1106.907715,839.924561 1096.026367,840.201599 1085.828369,837.696777 
	C1073.926392,834.773499 1066.899048,825.342468 1065.210815,813.349915 
	C1063.834961,803.575256 1064.171753,793.539062 1064.040649,783.614929 
	C1063.873535,770.969055 1064.000000,758.319336 1064.000000,745.176697 
	C1059.716553,745.176697 1055.645508,745.176697 1051.292969,745.176697 
	C1051.292969,736.624634 1051.292969,728.564392 1051.292969,720.184143 
	C1055.340088,720.184143 1059.286133,720.184143 1063.727051,720.184143 
	C1063.727051,708.151245 1063.727051,696.416443 1063.727051,684.343506 
	C1074.607666,684.343506 1085.001099,684.343506 1095.895264,684.343506 
	C1095.895264,696.025818 1095.895264,707.758972 1095.895264,720.119934 
	C1103.327271,720.119934 1110.271484,720.119934 1117.549561,720.462158 
z"/>
<path fill="#308391" opacity="1.000000" stroke="none" 
	d="
M627.387085,420.894989 
	C626.992676,388.499420 626.989380,356.165283 626.975586,323.354279 
	C640.685486,315.170654 652.825745,305.374969 662.862305,293.359955 
	C668.757324,286.302826 673.187012,278.021606 678.583252,270.121948 
	C679.260498,271.829590 679.949768,273.705688 679.952820,275.582947 
	C680.015625,313.911285 679.992981,352.239807 680.020203,390.568268 
	C680.021606,392.539459 680.315918,394.510468 680.788330,396.766998 
	C672.765320,401.683472 664.693420,406.909607 656.017395,410.782196 
	C646.905945,414.849182 637.215637,417.619476 627.387085,420.894989 
z"/>
<path fill="#58595A" opacity="1.000000" stroke="none" 
	d="
M189.253479,830.751953 
	C181.909958,823.990784 179.089554,815.573425 179.060120,806.315125 
	C178.924011,763.490234 179.000000,720.664673 179.000000,677.839355 
	C179.000000,676.044067 179.000000,674.248840 179.000000,672.237671 
	C189.704376,672.237671 199.978165,672.237671 211.000000,672.237671 
	C211.000000,673.901794 211.000000,675.649963 211.000000,677.398193 
	C211.000000,718.557190 211.085663,759.716431 210.932037,800.874878 
	C210.898956,809.739502 214.682663,812.612915 223.210327,812.975769 
	C226.659378,813.122559 230.119904,813.000000 233.779144,813.000000 
	C233.779144,822.070618 233.779144,830.678162 233.779144,840.025085 
	C220.992706,839.187134 207.844681,842.577698 195.676163,835.849060 
	C193.417679,834.600220 191.553589,832.638123 189.253479,830.751953 
z"/>
<path fill="#58595A" opacity="1.000000" stroke="none" 
	d="
M606.000000,986.000000 
	C606.000000,971.205811 606.000000,956.911621 606.000000,942.309692 
	C616.672729,942.309692 627.060364,942.309692 637.846802,942.309692 
	C637.846802,945.094299 637.846802,947.850342 637.846802,950.484497 
	C643.610168,947.838501 648.888977,944.693176 654.595581,942.940857 
	C667.697632,938.917480 680.376831,940.000854 692.019897,947.988586 
	C698.161560,952.201965 698.324829,953.174011 693.205261,958.293213 
	C687.554382,963.943665 681.850769,969.542847 676.280212,975.271362 
	C674.415405,977.189148 673.076965,977.458496 670.906189,975.518799 
	C664.678467,969.953857 657.625427,967.983337 649.799072,972.070129 
	C642.228149,976.023499 638.932129,982.449890 638.965454,990.945740 
	C639.062622,1015.736877 639.000000,1040.528564 639.000000,1065.659668 
	C628.059631,1065.659668 617.340088,1065.659668 606.000000,1065.659668 
	C606.000000,1039.308228 606.000000,1012.904114 606.000000,986.000000 
z"/>
<path fill="#58595A" opacity="1.000000" stroke="none" 
	d="
M470.477783,745.020142 
	C455.630768,743.165222 447.603455,754.822205 447.866333,767.216980 
	C448.339417,789.524353 448.000000,811.848877 448.000000,834.166260 
	C448.000000,835.955261 448.000000,837.744263 448.000000,839.763306 
	C436.964386,839.763306 426.361206,839.763306 415.378235,839.763306 
	C415.378235,799.144348 415.378235,758.438416 415.378235,717.365845 
	C425.556091,717.365845 435.945160,717.365845 446.802673,717.365845 
	C446.802673,719.940247 446.802673,722.653503 446.802673,724.728333 
	C453.525726,722.025635 459.869934,718.651672 466.634644,716.927551 
	C480.652039,713.355103 493.773560,715.426392 504.573608,725.981934 
	C505.231720,726.625244 505.327332,728.947815 504.722443,729.609680 
	C498.241913,736.700439 491.653900,743.701111 484.832825,750.461670 
	C484.011597,751.275513 481.397552,751.038086 480.034851,750.395813 
	C476.856750,748.898010 473.934784,746.856750 470.477783,745.020142 
z"/>
<path fill="#3C8995" opacity="1.000000" stroke="none" 
	d="
M800.676025,153.376007 
	C799.959717,151.241592 799.067078,148.847321 799.061646,146.451065 
	C798.974487,107.661507 798.999817,68.871689 798.998840,29.624424 
	C812.723999,23.106401 826.450012,17.045889 840.567383,10.934769 
	C841.305847,13.658998 841.948120,16.433130 841.954712,19.208778 
	C842.026733,49.445187 841.999146,79.681839 841.997314,110.375900 
	C835.069092,116.317665 827.430237,121.123695 821.395813,127.458176 
	C813.876404,135.351608 807.680115,144.505585 800.676025,153.376007 
z"/>
<path fill="#006C80" opacity="1.000000" stroke="none" 
	d="
M200.829788,624.917480 
	C193.953110,615.315247 187.394150,605.845276 181.068817,596.221741 
	C175.912155,588.376221 171.034851,580.347168 165.365753,571.338074 
	C165.365753,589.745972 165.365753,607.013550 165.365753,624.639343 
	C159.133743,624.639343 153.400833,624.639343 147.331238,624.639343 
	C147.331238,594.736450 147.331238,564.681396 147.331238,534.005066 
	C152.165527,534.005066 157.119873,533.727234 162.006866,534.178711 
	C163.424820,534.309753 164.947784,536.334900 165.917191,537.821350 
	C175.660004,552.760681 185.297928,567.768311 194.963593,582.757935 
	C195.742676,583.966187 196.508606,585.182983 197.790527,587.196716 
	C197.790527,569.130920 197.790527,551.842102 197.790527,534.279480 
	C204.373550,534.279480 210.434708,534.279480 216.749619,534.279480 
	C216.749619,564.427734 216.749619,594.482300 216.749619,624.983398 
	C211.484161,624.983398 206.366348,624.983398 200.829788,624.917480 
z"/>
<path fill="#006C80" opacity="1.000000" stroke="none" 
	d="
M626.000000,594.124146 
	C626.000000,604.567688 626.000000,614.523254 626.000000,624.737366 
	C619.928223,624.737366 614.202820,624.737366 608.237427,624.737366 
	C608.237427,594.560364 608.237427,564.519775 608.237427,533.074402 
	C624.034424,534.051819 639.724976,534.146362 655.136047,536.269775 
	C666.282654,537.805664 673.123718,551.000854 673.268127,560.556396 
	C673.466797,573.706787 667.817810,581.800049 657.390076,586.340942 
	C663.914490,598.948242 670.441223,611.560059 677.201782,624.623657 
	C669.809998,624.623657 662.784851,624.623657 655.097717,624.623657 
	C650.534546,615.005432 645.542114,605.025879 641.073914,594.816956 
	C639.077332,590.255188 636.489563,588.009888 631.431274,588.953918 
	C629.849243,589.249207 628.165588,589.000000 626.231995,589.000000 
	C626.144653,590.745605 626.072327,592.190796 626.000000,594.124146 
M626.001160,553.704224 
	C626.001160,560.443787 626.001160,567.183350 626.001160,574.000000 
	C631.430969,574.000000 636.090210,574.000000 640.749451,573.999878 
	C641.248840,573.999878 641.749390,574.022339 642.247375,573.996094 
	C648.829529,573.648682 654.353699,569.024170 654.993286,563.333862 
	C655.546753,558.409119 651.384644,552.212769 645.750549,551.463440 
	C639.542542,550.637634 633.155212,551.137939 626.846436,551.164124 
	C626.565796,551.165283 626.289490,552.193726 626.001160,553.704224 
z"/>
<path fill="#006C80" opacity="1.000000" stroke="none" 
	d="
M49.947563,626.000000 
	C31.811838,627.152466 19.485405,615.289062 16.740227,604.264465 
	C16.038982,601.448364 15.097548,598.576904 15.076898,595.724976 
	C14.933443,575.914124 15.001955,556.101746 15.013767,536.289856 
	C15.014141,535.663025 15.136713,535.036316 15.222412,534.217590 
	C21.374334,534.217590 27.316605,534.217590 33.999996,534.217590 
	C33.999996,535.870728 33.999996,537.616333 33.999996,539.362000 
	C33.999996,557.342529 33.990520,575.323059 34.003712,593.303589 
	C34.011101,603.370850 39.694965,609.007019 49.781910,609.000000 
	C58.343391,608.993958 63.991131,602.749207 63.996868,593.238159 
	C64.007706,575.257629 64.000000,557.277100 64.000000,539.296570 
	C64.000000,537.670044 64.000000,536.043579 64.000000,534.221069 
	C70.367043,534.221069 76.309479,534.221069 83.000000,534.221069 
	C83.000000,535.697632 83.000000,537.275146 83.000000,538.852661 
	C83.000000,556.999695 83.265732,575.151611 82.928146,593.292358 
	C82.562332,612.950562 69.538544,626.001465 49.947563,626.000000 
z"/>
<path fill="#157687" opacity="1.000000" stroke="none" 
	d="
M291.368439,421.785828 
	C290.663605,419.389893 290.050568,416.947449 290.043488,414.503204 
	C289.972046,389.910339 289.953888,365.316986 290.058075,340.724335 
	C290.071167,337.631439 291.044434,334.553711 291.261230,331.447174 
	C291.439789,328.888947 291.156281,326.298523 291.026276,323.318909 
	C293.424377,321.375610 295.873779,319.835754 298.663025,318.646759 
	C299.848114,321.636169 300.400940,324.417023 301.601013,326.882935 
	C303.917816,331.643707 307.775055,335.075623 311.501953,338.834473 
	C316.397156,343.771667 319.351227,350.608643 323.310638,356.514252 
	C324.440826,358.199921 326.111481,359.544189 327.626892,360.944824 
	C329.230347,362.426849 331.077332,363.661194 332.585052,365.227875 
	C337.246704,370.071838 339.951782,377.241943 348.273132,378.198730 
	C349.496887,379.932068 350.358521,381.529266 351.412964,382.987000 
	C353.137085,385.370605 354.986694,387.663483 356.783386,389.994598 
	C341.348328,401.852356 324.056183,410.217163 305.909454,416.945282 
	C301.236755,418.677734 296.466797,420.147858 291.368439,421.785828 
z"/>
<path fill="#006C80" opacity="1.000000" stroke="none" 
	d="
M505.259674,551.054932 
	C504.403748,557.485352 504.025970,563.872009 503.619049,570.750610 
	C515.875854,570.750610 527.612366,570.750610 539.671936,570.750610 
	C539.671936,576.606934 539.671936,582.002930 539.671936,587.874573 
	C527.997620,587.874573 516.260498,587.874573 504.266052,587.874573 
	C504.266052,595.069580 504.266052,601.798828 504.266052,608.821777 
	C518.012085,608.821777 531.625610,608.821777 545.618835,608.821777 
	C545.618835,614.155945 545.618835,619.225647 545.618835,625.000000 
	C535.921265,625.000000 525.999939,625.000000 516.078552,625.000000 
	C506.265015,625.000000 496.451447,625.000000 486.319702,625.000000 
	C486.319702,594.705566 486.319702,564.643738 486.319702,534.290405 
	C506.020508,534.290405 525.749329,534.290405 545.739746,534.290405 
	C545.739746,539.747437 545.739746,545.143555 545.739746,551.011230 
	C532.304993,551.011230 519.021362,551.011230 505.259674,551.054932 
z"/>
<path fill="#006C80" opacity="1.000000" stroke="none" 
	d="
M1085.056641,571.000000 
	C1094.515747,571.000000 1103.483765,571.000000 1112.724365,571.000000 
	C1112.724365,576.715942 1112.724365,582.111633 1112.724365,587.978271 
	C1100.889771,587.978271 1089.154785,587.978271 1077.214478,587.978271 
	C1077.214478,595.052246 1077.214478,601.664734 1077.214478,608.746460 
	C1090.873291,608.746460 1104.608154,608.746460 1118.669434,608.746460 
	C1118.669434,614.268311 1118.669434,619.330566 1118.669434,624.700623 
	C1098.999878,624.700623 1079.271362,624.700623 1059.270752,624.700623 
	C1059.270752,594.606689 1059.270752,564.546448 1059.270752,534.000000 
	C1069.328735,534.000000 1079.275269,534.000000 1089.221680,534.000000 
	C1099.007080,534.000000 1108.792358,534.000000 1118.785889,534.000000 
	C1118.785889,539.718811 1118.785889,544.998596 1118.785889,550.747375 
	C1105.126221,550.747375 1091.390991,550.747375 1077.330078,550.747375 
	C1077.330078,557.599854 1077.330078,563.997986 1077.330078,571.000000 
	C1079.697998,571.000000 1082.131836,571.000000 1085.056641,571.000000 
z"/>
<path fill="#006C80" opacity="1.000000" stroke="none" 
	d="
M731.017212,617.003540 
	C729.616089,616.160339 728.578552,615.370544 727.683777,614.689453 
	C732.136780,610.215027 736.083801,606.249023 740.270630,602.042114 
	C748.517700,609.509216 758.664368,610.529175 769.278625,608.125305 
	C775.060547,606.815918 777.340149,603.085144 776.998962,597.548035 
	C776.711914,592.888794 773.437256,590.034912 767.950806,588.946777 
	C760.046326,587.378967 752.051575,585.980774 744.383850,583.586243 
	C737.068726,581.301941 733.179993,575.120911 732.134705,567.868469 
	C729.218384,547.634155 740.955322,534.199036 760.218811,533.985229 
	C768.750488,533.890564 777.331177,533.462646 785.057678,538.040833 
	C787.562256,539.524841 789.969116,541.236145 792.157654,543.145142 
	C792.677368,543.598389 792.530090,545.525635 792.002686,546.317322 
	C791.007202,547.812073 789.527954,548.990051 788.222290,550.271606 
	C786.327576,552.131409 784.633972,555.018860 782.431091,555.490784 
	C780.547852,555.894165 778.142517,553.330322 775.838501,552.399963 
	C769.335754,549.774109 762.708374,548.450378 755.947083,551.548401 
	C751.343872,553.657593 749.299805,557.329590 750.047302,562.294861 
	C750.803650,567.318420 754.751465,569.053589 759.038208,569.957947 
	C765.998779,571.426636 773.021240,572.599365 780.002686,573.972412 
	C788.205261,575.585693 795.623352,585.922363 795.128479,594.475403 
	C794.758423,600.872803 795.145081,607.194885 791.572754,612.989990 
	C787.623901,619.395874 781.482971,623.016907 774.710876,624.494507 
	C762.106750,627.244446 749.365356,627.560791 737.471375,621.048340 
	C735.348999,619.886169 733.406311,618.395813 731.017212,617.003540 
z"/>
<path fill="#006C80" opacity="1.000000" stroke="none" 
	d="
M423.278778,556.348694 
	C415.601624,579.383850 408.141296,602.073608 400.700104,624.705322 
	C386.424194,625.902405 386.355988,625.925049 382.272339,613.614014 
	C374.746429,590.925659 367.299744,568.210999 359.844757,545.499146 
	C358.635315,541.814514 357.552917,538.088074 356.348602,534.175781 
	C362.752228,534.175781 368.997101,534.175781 375.647186,534.175781 
	C381.432068,552.924622 387.259003,571.809631 393.279999,591.323669 
	C397.458801,577.779419 401.393372,565.026245 405.328217,552.273254 
	C406.899384,547.181091 408.307434,542.028442 410.155457,537.038757 
	C410.628510,535.761536 412.444702,534.216919 413.726807,534.137756 
	C419.012848,533.811157 424.330780,534.000977 430.680298,534.000977 
	C428.153595,541.738770 425.824615,548.871094 423.278778,556.348694 
z"/>
<path fill="#006C80" opacity="1.000000" stroke="none" 
	d="
M935.260437,550.945251 
	C934.406555,545.518127 934.030518,540.134644 933.627319,534.361877 
	C955.866272,534.361877 977.588806,534.361877 999.656433,534.361877 
	C999.656433,539.570312 999.656433,544.966431 999.656433,550.834106 
	C992.039429,550.834106 984.303650,550.834106 976.122009,550.834106 
	C976.122009,575.681458 976.122009,600.071655 976.122009,624.728882 
	C969.944336,624.728882 964.216736,624.728882 958.031494,624.728882 
	C958.031494,600.227234 958.031494,575.836914 958.031494,550.988831 
	C950.303528,550.988831 943.020874,550.988831 935.260437,550.945251 
z"/>
<path fill="#006C80" opacity="1.000000" stroke="none" 
	d="
M301.000000,580.000000 
	C301.000000,595.122498 301.000000,609.744934 301.000000,624.683105 
	C294.712311,624.683105 288.654022,624.683105 282.295959,624.683105 
	C282.295959,594.691711 282.295959,564.663574 282.295959,534.317261 
	C288.287079,534.317261 294.345398,534.317261 301.000000,534.317261 
	C301.000000,549.349426 301.000000,564.424744 301.000000,580.000000 
z"/>
<path fill="#006C80" opacity="1.000000" stroke="none" 
	d="
M875.000000,588.000000 
	C875.000000,600.458923 875.000000,612.417847 875.000000,624.687622 
	C869.034790,624.687622 863.310303,624.687622 857.290894,624.687622 
	C857.290894,594.682068 857.290894,564.654236 857.290894,534.312744 
	C862.964539,534.312744 868.689087,534.312744 875.000000,534.312744 
	C875.000000,552.023499 875.000000,569.761719 875.000000,588.000000 
z"/>
<path fill="#146F7F" opacity="1.000000" stroke="none" 
	d="
M356.967346,389.680298 
	C354.986694,387.663483 353.137085,385.370605 351.412964,382.987000 
	C350.358521,381.529266 349.496887,379.932068 348.237915,377.840302 
	C344.382996,371.121887 340.920258,364.912018 337.273804,358.811951 
	C332.883026,351.466675 328.390106,344.180908 323.842682,336.931305 
	C318.605225,328.581696 313.259918,320.299744 307.961487,311.988403 
	C312.097717,308.069794 316.233948,304.151215 320.690948,300.487000 
	C321.898987,302.856628 322.513733,305.142578 323.715302,307.060974 
	C337.298248,328.747253 350.922455,350.408234 364.683044,371.981995 
	C366.357513,374.607239 368.895203,376.681793 371.032867,379.011566 
	C366.405670,382.463013 361.778473,385.914490 356.967346,389.680298 
z"/>
<path fill="#126978" opacity="1.000000" stroke="none" 
	d="
M371.343079,378.862610 
	C368.895203,376.681793 366.357513,374.607239 364.683044,371.981995 
	C350.922455,350.408234 337.298248,328.747253 323.715302,307.060974 
	C322.513733,305.142578 321.898987,302.856628 321.003174,300.364136 
	C322.773926,298.064148 324.553223,296.141418 326.948273,294.249695 
	C333.098907,303.090668 338.684662,311.869171 344.156403,320.718201 
	C351.806030,333.089355 359.311218,345.550079 367.000000,357.896667 
	C370.207672,363.047577 373.728607,368.003448 377.107086,373.048004 
	C375.289124,374.936523 373.471191,376.825073 371.343079,378.862610 
z"/>
<path fill="#0F6473" opacity="1.000000" stroke="none" 
	d="
M377.432861,373.010254 
	C373.728607,368.003448 370.207672,363.047577 367.000000,357.896667 
	C359.311218,345.550079 351.806030,333.089355 344.156403,320.718201 
	C338.684662,311.869171 333.098907,303.090668 327.253723,294.128235 
	C328.746552,291.393188 330.549622,288.810608 332.703400,286.435974 
	C333.438293,287.558807 333.713959,288.539459 334.222473,289.379089 
	C350.255402,315.851074 366.310944,342.309387 382.363068,368.769745 
	C380.828247,370.170685 379.293427,371.571625 377.432861,373.010254 
z"/>
<path fill="#084F5C" opacity="1.000000" stroke="none" 
	d="
M400.895874,345.056396 
	C400.952087,345.818481 401.008301,346.580597 401.072632,347.724243 
	C400.262390,349.329407 399.444031,350.553070 397.957886,351.882690 
	C395.824341,350.574188 393.961121,349.397308 392.952545,347.709625 
	C378.001007,322.690033 363.139313,297.616516 348.335876,272.508881 
	C346.940948,270.143036 346.081177,267.461670 344.972961,264.926788 
	C345.285583,264.151306 345.598206,263.375824 346.383911,262.343323 
	C348.631073,264.191681 350.732025,266.102203 352.123016,268.435883 
	C358.393341,278.955383 364.418030,289.621216 370.680115,300.145752 
	C371.240631,301.087738 372.869812,301.393921 374.281372,302.205750 
	C377.391296,307.986816 379.814240,313.816406 383.145172,319.070282 
	C388.758820,327.924561 394.948486,336.413666 400.895874,345.056396 
z"/>
<path fill="#0D5C6A" opacity="1.000000" stroke="none" 
	d="
M335.884247,280.954956 
	C336.684052,279.701630 337.483856,278.448303 338.903320,277.222107 
	C340.225006,277.946686 341.103760,278.536743 341.602356,279.357697 
	C348.556488,290.807800 355.519958,302.253113 362.357452,313.773010 
	C370.378571,327.287018 378.186462,340.928772 386.333801,354.365356 
	C387.528717,356.336029 390.088867,357.478851 392.017273,359.004700 
	C390.232452,360.618073 388.447632,362.231445 386.206238,363.660950 
	C385.342560,362.950775 384.877289,362.459412 384.536652,361.893097 
	C368.312378,334.917786 352.098938,307.936005 335.884247,280.954956 
z"/>
<path fill="#0E606E" opacity="1.000000" stroke="none" 
	d="
M335.577148,281.098938 
	C352.098938,307.936005 368.312378,334.917786 384.536652,361.893097 
	C384.877289,362.459412 385.342560,362.950775 385.896942,363.793335 
	C385.009186,365.542023 383.974182,366.974457 382.651123,368.588318 
	C366.310944,342.309387 350.255402,315.851074 334.222473,289.379089 
	C333.713959,288.539459 333.438293,287.558807 333.012817,286.283752 
	C333.737732,284.363373 334.503906,282.803131 335.577148,281.098938 
z"/>
<path fill="#095361" opacity="1.000000" stroke="none" 
	d="
M344.662354,265.101196 
	C346.081177,267.461670 346.940948,270.143036 348.335876,272.508881 
	C363.139313,297.616516 378.001007,322.690033 392.952545,347.709625 
	C393.961121,349.397308 395.824341,350.574188 397.656799,351.998535 
	C396.717651,353.133362 395.411774,354.258270 393.631927,355.626709 
	C392.782227,355.564545 392.281830,355.333282 392.048553,354.942566 
	C377.379517,330.370392 362.791321,305.749603 348.008484,281.246216 
	C346.153290,278.171173 343.282013,275.709137 340.881561,272.963043 
	C342.038300,270.400574 343.195038,267.838104 344.662354,265.101196 
z"/>
<path fill="#0B5765" opacity="1.000000" stroke="none" 
	d="
M340.573120,273.104553 
	C343.282013,275.709137 346.153290,278.171173 348.008484,281.246216 
	C362.791321,305.749603 377.379517,330.370392 392.048553,354.942566 
	C392.281830,355.333282 392.782227,355.564545 393.488220,355.932129 
	C393.412201,356.917542 393.005920,357.841034 392.308472,358.884644 
	C390.088867,357.478851 387.528717,356.336029 386.333801,354.365356 
	C378.186462,340.928772 370.378571,327.287018 362.357452,313.773010 
	C355.519958,302.253113 348.556488,290.807800 341.602356,279.357697 
	C341.103760,278.536743 340.225006,277.946686 339.207764,277.101288 
	C339.349884,275.717560 339.807281,274.481812 340.573120,273.104553 
z"/>
<path fill="#006C80" opacity="1.000000" stroke="none" 
	d="
M1080.243408,525.485718 
	C1082.660645,518.888062 1084.768555,512.617126 1087.294678,506.519409 
	C1087.785767,505.333771 1089.868286,504.195984 1091.279785,504.113403 
	C1096.252686,503.822418 1101.252808,504.000244 1107.197632,504.000244 
	C1102.946167,510.463898 1099.040161,516.471375 1095.061401,522.430420 
	C1091.772095,527.356750 1086.008179,528.643738 1080.243408,525.485718 
z"/>
<path fill="#1B7989" opacity="1.000000" stroke="none" 
	d="
M401.195831,344.810181 
	C394.948486,336.413666 388.758820,327.924561 383.145172,319.070282 
	C379.814240,313.816406 377.391296,307.986816 374.144470,301.875427 
	C363.169647,276.929230 357.403748,251.409866 355.963226,224.885345 
	C355.646454,219.478210 354.935913,214.057800 355.117737,208.667496 
	C355.321503,202.627502 356.510437,196.627960 356.959656,190.587692 
	C358.299408,172.573914 363.147095,155.355148 369.300629,138.549271 
	C375.983856,120.296707 385.620087,103.505142 396.892578,87.670952 
	C397.273529,87.135872 397.804840,86.707817 398.577606,86.091797 
	C399.592773,88.563438 400.907684,91.172318 400.911255,93.782990 
	C401.019958,173.780457 400.993591,253.778107 401.021027,333.775726 
	C401.022278,337.371857 401.330536,340.967865 401.195831,344.810181 
z"/>
<path fill="#247D8D" opacity="1.000000" stroke="none" 
	d="
M470.366760,143.963776 
	C469.700012,141.840363 469.049225,139.575348 469.045013,137.309143 
	C468.980377,102.514732 469.007080,67.720161 468.979828,32.925663 
	C468.978424,31.122862 468.684143,29.320288 468.212280,27.231709 
	C474.349304,23.637873 480.545837,19.629089 487.306549,17.174067 
	C499.761475,12.651301 512.547913,9.041431 525.596436,5.108728 
	C525.997803,34.254559 525.978333,63.342850 526.039795,92.430977 
	C526.044617,94.712105 526.614319,96.992035 526.979980,99.695816 
	C507.394989,107.852089 490.855347,119.982780 476.877777,135.686813 
	C474.618439,138.225220 472.738708,141.101532 470.366760,143.963776 
z"/>
<path fill="#127486" opacity="1.000000" stroke="none" 
	d="
M307.640686,312.111145 
	C313.259918,320.299744 318.605225,328.581696 323.842682,336.931305 
	C328.390106,344.180908 332.883026,351.466675 337.273804,358.811951 
	C340.920258,364.912018 344.382996,371.121887 347.962341,377.641571 
	C339.951782,377.241943 337.246704,370.071838 332.585052,365.227875 
	C331.077332,363.661194 329.230347,362.426849 327.626892,360.944824 
	C326.111481,359.544189 324.440826,358.199921 323.310638,356.514252 
	C319.351227,350.608643 316.397156,343.771667 311.501953,338.834473 
	C307.775055,335.075623 303.917816,331.643707 301.601013,326.882935 
	C300.400940,324.417023 299.848114,321.636169 299.003601,318.605011 
	C301.776184,316.219604 304.548065,314.226776 307.640686,312.111145 
z"/>
<path fill="#074956" opacity="1.000000" stroke="none" 
	d="
M355.599609,225.074890 
	C357.403748,251.409866 363.169647,276.929230 373.865723,301.665070 
	C372.869812,301.393921 371.240631,301.087738 370.680115,300.145752 
	C364.418030,289.621216 358.393341,278.955383 352.123016,268.435883 
	C350.732025,266.102203 348.631073,264.191681 346.520294,262.040527 
	C348.568726,253.399841 351.054932,244.831116 353.290436,236.197495 
	C354.215546,232.624756 354.603699,228.912979 355.599609,225.074890 
z"/>
<path fill="#2E8290" opacity="1.000000" stroke="none" 
	d="
M593.396973,94.907066 
	C592.996216,64.249512 592.997192,33.665630 592.996582,2.624151 
	C602.937988,3.791970 613.033508,4.800257 622.782593,7.210186 
	C633.278320,9.804694 643.943542,12.248343 653.196289,18.565023 
	C676.231445,34.290646 679.365479,67.670746 661.639771,87.023544 
	C651.837036,97.726059 639.931458,102.884834 625.825928,102.821457 
	C620.600464,102.797981 615.350830,100.869522 610.172729,99.568909 
	C604.677307,98.188591 599.253723,96.522202 593.396973,94.907066 
z"/>
<path fill="#FFFFFF" opacity="1.000000" stroke="none" 
	d="
M784.824463,981.588013 
	C785.638977,990.298645 787.070801,998.657898 786.743042,1006.947510 
	C786.514160,1012.735535 784.858398,1018.968323 782.073792,1024.031128 
	C778.343262,1030.813843 771.022156,1032.179443 763.854553,1030.763672 
	C756.785950,1029.367554 752.578003,1024.659180 750.898193,1017.364990 
	C748.384949,1006.451355 748.318115,995.662415 750.635620,984.737854 
	C752.680908,975.096680 758.110535,970.767761 765.926819,970.123596 
	C774.121338,969.448364 780.112549,971.561401 784.824463,981.588013 
z"/>
<path fill="#FFFFFF" opacity="1.000000" stroke="none" 
	d="
M92.735504,1001.399048 
	C93.295807,1003.321106 93.654724,1004.879150 94.084641,1006.745483 
	C81.377769,1006.745483 68.965958,1006.745483 56.365383,1006.745483 
	C62.636742,988.689758 68.904388,970.644775 75.716103,951.033325 
	C81.609039,968.553650 87.071579,984.794373 92.735504,1001.399048 
z"/>
<path fill="#FFFFFF" opacity="1.000000" stroke="none" 
	d="
M297.659851,754.794922 
	C301.251099,746.292297 309.306702,741.458679 320.720001,743.143127 
	C333.056763,744.963867 337.175995,754.371887 338.791534,765.693970 
	C324.390564,765.693970 310.000183,765.693970 294.359741,765.693970 
	C295.432007,761.966736 296.420868,758.529297 297.659851,754.794922 
z"/>
<path fill="#FFFFFF" opacity="1.000000" stroke="none" 
	d="
M1085.981079,981.267090 
	C1086.844971,984.877136 1087.680664,988.087769 1088.625366,991.716492 
	C1073.179688,991.716492 1058.679443,991.716492 1044.151489,991.716492 
	C1045.864746,974.826050 1054.059082,969.588745 1062.520508,968.232239 
	C1071.608154,966.775269 1080.361694,969.173462 1085.981079,981.267090 
z"/>
<path fill="#FFFFFF" opacity="1.000000" stroke="none" 
	d="
M524.749023,974.252197 
	C527.722351,979.859741 530.437073,985.208557 533.684082,991.606201 
	C517.406494,991.606201 502.946045,991.606201 488.483795,991.612976 
	C486.524078,984.911621 492.440155,973.358643 500.111542,969.987793 
	C507.237091,966.856812 517.573242,966.544983 524.749023,974.252197 
z"/>
<path fill="#FFFFFF" opacity="1.000000" stroke="none" 
	d="
M827.030579,802.844604 
	C821.706421,814.791016 802.009155,814.948303 796.524414,805.861145 
	C794.068481,801.792236 791.498718,797.054626 791.290100,792.514404 
	C790.798340,781.813660 790.684570,770.895996 792.286987,760.350037 
	C794.224060,747.601013 805.868774,741.621338 817.868835,746.089722 
	C825.169495,748.808228 828.725647,755.137939 829.824890,762.268860 
	C831.657959,774.159546 831.770020,786.171875 828.964783,798.017151 
	C828.599182,799.560608 827.734680,800.985962 827.030579,802.844604 
z"/>
<path fill="#FFFFFF" opacity="1.000000" stroke="none" 
	d="
M626.006165,553.223938 
	C626.289490,552.193726 626.565796,551.165283 626.846436,551.164124 
	C633.155212,551.137939 639.542542,550.637634 645.750549,551.463440 
	C651.384644,552.212769 655.546753,558.409119 654.993286,563.333862 
	C654.353699,569.024170 648.829529,573.648682 642.247375,573.996094 
	C641.749390,574.022339 641.248840,573.999878 640.749451,573.999878 
	C636.090210,574.000000 631.430969,574.000000 626.001160,574.000000 
	C626.001160,567.183350 626.001160,560.443787 626.006165,553.223938 
z"/>
</svg>